<svg  viewBox="0 0 36 34" fill="none" xmlns="http://www.w3.org/2000/svg">
<path fill-rule="evenodd" clip-rule="evenodd" d="M15 1L27.5 33.5H34.5L26 12.5L21.5 1H15ZM1 33.5L13.5 2L17 11L9 33.5H5H1Z"/>
<path d="M27.5 33.5L27.0333 33.6795L27.1566 34H27.5V33.5ZM15 1V0.5H14.272L14.5333 1.17949L15 1ZM34.5 33.5V34H35.2418L34.9635 33.3124L34.5 33.5ZM26 12.5L25.5343 12.6822L25.5365 12.6876L26 12.5ZM21.5 1L21.9656 0.8178L21.8413 0.5H21.5V1ZM13.5 2L13.966 1.81878L13.5047 0.632573L13.0353 1.81558L13.5 2ZM1 33.5L0.535255 33.3156L0.263658 34H1V33.5ZM17 11L17.4711 11.1675L17.5334 10.9922L17.466 10.8188L17 11ZM9 33.5V34H9.35289L9.47111 33.6675L9 33.5ZM27.9667 33.3205L15.4667 0.82051L14.5333 1.17949L27.0333 33.6795L27.9667 33.3205ZM34.5 33H27.5V34H34.5V33ZM25.5365 12.6876L34.0365 33.6876L34.9635 33.3124L26.4635 12.3124L25.5365 12.6876ZM21.0344 1.1822L25.5344 12.6822L26.4656 12.3178L21.9656 0.8178L21.0344 1.1822ZM15 1.5H21.5V0.5H15V1.5ZM13.0353 1.81558L0.535255 33.3156L1.46475 33.6844L13.9647 2.18442L13.0353 1.81558ZM17.466 10.8188L13.966 1.81878L13.034 2.18122L16.534 11.1812L17.466 10.8188ZM9.47111 33.6675L17.4711 11.1675L16.5289 10.8325L8.52889 33.3325L9.47111 33.6675ZM5 34H9V33H5V34ZM1 34H5V33H1V34Z"/>
</svg>
