<svg width="79" height="37" viewBox="0 0 79 37" fill="none" xmlns="http://www.w3.org/2000/svg">
<path fill-rule="evenodd" clip-rule="evenodd" d="M19 2.5L31.5 35H38.5L37 31.5H38.5L40 32.5V35H48V32C48.3333 32 49.3 31.8 50.5 31L53 33.5L58.5 28L56 26C56.6667 25.3333 57.5 24 57.5 22.5H60.5V15H57.5C57.5 14.5 57 13 56 12L58.5 9.5L53 4L50.5 6.5C50 6.16667 48.7 5.5 47.5 5.5V2H39.5V5.5C39 5.5 37.7 5.7 36.5 6.5L34 4L29 9.5L31 12V14H30L25.5 2.5H19ZM5 35L17.5 3.5L21 12.5L13 35H9H5ZM44 27C48.4183 27 52 23.4183 52 19C52 14.5817 48.4183 11 44 11C39.5817 11 36 14.5817 36 19C36 23.4183 39.5817 27 44 27Z" fill="white"/>
<path d="M31.5 35L31.0333 35.1795L31.1566 35.5H31.5V35ZM19 2.5V2H18.272L18.5333 2.67949L19 2.5ZM38.5 35V35.5H39.2583L38.9596 34.803L38.5 35ZM37 31.5V31H36.2417L36.5404 31.697L37 31.5ZM38.5 31.5L38.7774 31.084L38.6514 31H38.5V31.5ZM40 32.5H40.5V32.2324L40.2774 32.084L40 32.5ZM40 35H39.5V35.5H40V35ZM48 35V35.5H48.5V35H48ZM48 32V31.5H47.5V32H48ZM50.5 31L50.8536 30.6464L50.5637 30.3566L50.2226 30.584L50.5 31ZM53 33.5L52.6464 33.8536L53 34.2071L53.3536 33.8536L53 33.5ZM58.5 28L58.8536 28.3536L59.2486 27.9585L58.8123 27.6096L58.5 28ZM56 26L55.6464 25.6464L55.2514 26.0415L55.6877 26.3904L56 26ZM57.5 22.5V22H57V22.5H57.5ZM60.5 22.5V23H61V22.5H60.5ZM60.5 15H61V14.5H60.5V15ZM57.5 15H57V15.5H57.5V15ZM56 12L55.6464 11.6464L55.2929 12L55.6464 12.3536L56 12ZM58.5 9.5L58.8536 9.85355L59.2071 9.5L58.8536 9.14645L58.5 9.5ZM53 4L53.3536 3.64645L53 3.29289L52.6464 3.64645L53 4ZM50.5 6.5L50.2226 6.91603L50.5637 7.1434L50.8536 6.85355L50.5 6.5ZM47.5 5.5H47V6H47.5V5.5ZM47.5 2H48V1.5H47.5V2ZM39.5 2V1.5H39V2H39.5ZM39.5 5.5V6H40V5.5H39.5ZM36.5 6.5L36.1464 6.85355L36.4363 7.1434L36.7773 6.91603L36.5 6.5ZM34 4L34.3536 3.64645L33.9828 3.27566L33.63 3.66366L34 4ZM29 9.5L28.63 9.16366L28.3431 9.47928L28.6096 9.81235L29 9.5ZM31 12H31.5V11.8246L31.3904 11.6877L31 12ZM31 14V14.5H31.5V14H31ZM30 14L29.5344 14.1822L29.6587 14.5H30V14ZM25.5 2.5L25.9656 2.3178L25.8413 2H25.5V2.5ZM17.5 3.5L17.966 3.31878L17.5047 2.13257L17.0353 3.31558L17.5 3.5ZM5 35L4.53525 34.8156L4.26366 35.5H5V35ZM21 12.5L21.4711 12.6675L21.5334 12.4922L21.466 12.3188L21 12.5ZM13 35V35.5H13.3529L13.4711 35.1675L13 35ZM31.9667 34.8205L19.4667 2.32051L18.5333 2.67949L31.0333 35.1795L31.9667 34.8205ZM38.5 34.5H31.5V35.5H38.5V34.5ZM36.5404 31.697L38.0404 35.197L38.9596 34.803L37.4596 31.303L36.5404 31.697ZM38.5 31H37V32H38.5V31ZM40.2774 32.084L38.7774 31.084L38.2226 31.916L39.7226 32.916L40.2774 32.084ZM40.5 35V32.5H39.5V35H40.5ZM48 34.5H40V35.5H48V34.5ZM47.5 32V35H48.5V32H47.5ZM50.2226 30.584C49.0806 31.3454 48.2091 31.5 48 31.5V32.5C48.4576 32.5 49.5194 32.2546 50.7774 31.416L50.2226 30.584ZM53.3536 33.1464L50.8536 30.6464L50.1464 31.3536L52.6464 33.8536L53.3536 33.1464ZM58.1464 27.6464L52.6464 33.1464L53.3536 33.8536L58.8536 28.3536L58.1464 27.6464ZM55.6877 26.3904L58.1877 28.3904L58.8123 27.6096L56.3123 25.6096L55.6877 26.3904ZM57 22.5C57 23.8291 56.2505 25.0424 55.6464 25.6464L56.3536 26.3536C57.0829 25.6242 58 24.1709 58 22.5H57ZM60.5 22H57.5V23H60.5V22ZM60 15V22.5H61V15H60ZM57.5 15.5H60.5V14.5H57.5V15.5ZM55.6464 12.3536C56.0913 12.7984 56.4352 13.3666 56.6681 13.8906C56.9086 14.4318 57 14.8551 57 15H58C58 14.6449 57.8414 14.0682 57.5819 13.4844C57.3148 12.8834 56.9087 12.2016 56.3536 11.6464L55.6464 12.3536ZM58.1464 9.14645L55.6464 11.6464L56.3536 12.3536L58.8536 9.85355L58.1464 9.14645ZM52.6464 4.35355L58.1464 9.85355L58.8536 9.14645L53.3536 3.64645L52.6464 4.35355ZM50.8536 6.85355L53.3536 4.35355L52.6464 3.64645L50.1464 6.14645L50.8536 6.85355ZM47.5 6C48.0149 6 48.5753 6.14489 49.0818 6.34121C49.5857 6.53651 50.0032 6.76975 50.2226 6.91603L50.7774 6.08397C50.4968 5.89691 50.0143 5.63016 49.4432 5.40879C48.8747 5.18845 48.1851 5 47.5 5V6ZM47 2V5.5H48V2H47ZM39.5 2.5H47.5V1.5H39.5V2.5ZM40 5.5V2H39V5.5H40ZM36.7773 6.91603C37.883 6.17892 39.0829 6 39.5 6V5C38.9171 5 37.517 5.22108 36.2227 6.08397L36.7773 6.91603ZM33.6464 4.35355L36.1464 6.85355L36.8536 6.14645L34.3536 3.64645L33.6464 4.35355ZM29.37 9.83634L34.37 4.33634L33.63 3.66366L28.63 9.16366L29.37 9.83634ZM31.3904 11.6877L29.3904 9.18765L28.6096 9.81235L30.6096 12.3123L31.3904 11.6877ZM31.5 14V12H30.5V14H31.5ZM30 14.5H31V13.5H30V14.5ZM25.0344 2.6822L29.5344 14.1822L30.4656 13.8178L25.9656 2.3178L25.0344 2.6822ZM19 3H25.5V2H19V3ZM17.0353 3.31558L4.53525 34.8156L5.46475 35.1844L17.9647 3.68442L17.0353 3.31558ZM21.466 12.3188L17.966 3.31878L17.034 3.68122L20.534 12.6812L21.466 12.3188ZM13.4711 35.1675L21.4711 12.6675L20.5289 12.3325L12.5289 34.8325L13.4711 35.1675ZM9 35.5H13V34.5H9V35.5ZM5 35.5H9V34.5H5V35.5ZM51.5 19C51.5 23.1421 48.1421 26.5 44 26.5V27.5C48.6944 27.5 52.5 23.6944 52.5 19H51.5ZM44 11.5C48.1421 11.5 51.5 14.8579 51.5 19H52.5C52.5 14.3056 48.6944 10.5 44 10.5V11.5ZM36.5 19C36.5 14.8579 39.8579 11.5 44 11.5V10.5C39.3056 10.5 35.5 14.3056 35.5 19H36.5ZM44 26.5C39.8579 26.5 36.5 23.1421 36.5 19H35.5C35.5 23.6944 39.3056 27.5 44 27.5V26.5Z" fill="white"/>
<path d="M59.5 8.5L55 4V3H77.5V8H69.5V34.7998H63V8.5H59.5Z" fill="white" stroke="white"/>
</svg>
