<svg xmlns="http://www.w3.org/2000/svg" width="32" height="32" id="google-maps"><path fill="#4788f4" d="M2.5 29.5h25V6.949"></path><path fill="#cdcdcd" d="M27.5 29.5V6.949L15 18.224z"></path><path fill="#34a853" d="M2.5 4.5v25L23.977 8.068c-.012-.012-.027-.019-.04-.031a1.482 1.482 0 0 1-.433-1.14L21.143 4.5H2.5z"></path><path fill="#fff" d="M20.953 8.925 2.5 27.378V29.5h2.121l18.28-18.28-1.083-1.076a4.5 4.479 0 0 1-.865-1.219z"></path><path fill="#fff" d="M25.379 29.5 15 19.12l-.94-3.06 3.061.94 10.38 10.378-.002 2.122z"></path><path fill="none" d="M21.142 4.5H2.5v25h25V10.949"></path><path fill="none" d="M20.953 8.925 2.5 27.378V29.5h2.121l18.28-18.28-1.083-1.076a4.5 4.479 0 0 1-.865-1.219z"></path><path fill="#efefef" style="line-height:normal;text-indent:0;text-align:start;text-decoration-line:none;text-decoration-style:solid;text-decoration-color:#000;text-transform:none;block-progression:tb;white-space:normal;isolation:auto;mix-blend-mode:normal;solid-color:#000;solid-opacity:1" d="M7.479 1026.397a3.995 3.995 0 0 0-2.307 1.136 4.004 4.004 0 0 0-.637 4.828 4.005 4.005 0 0 0 4.5 1.864A4.004 4.004 0 0 0 12 1030.36v-.5H8v1h2.83c-.207 1.123-.919 2.095-2.053 2.399a2.997 2.997 0 0 1-3.375-1.399 2.995 2.995 0 0 1 .477-3.62 2.995 2.995 0 0 1 3.621-.477l.5-.866a3.994 3.994 0 0 0-2.521-.501z" color="#000" font-family="sans-serif" font-weight="400" overflow="visible" transform="translate(0 -1020.362)"></path><path fill="none" d="M25.379 29.5 15 19.12 17.121 17l10.38 10.378"></path><path fill="#ea4335" d="M25 2.5a4.5 4.479 0 0 0-4.157 2.763 4.5 4.479 0 0 0 .975 4.881l3.181 3.168 3.182-3.168a4.5 4.479 0 0 0 .977-4.88A4.5 4.479 0 0 0 24.999 2.5zm.02 2.984a1.501 1.494 0 0 1 1.04.437 1.501 1.494 0 0 1 0 2.114 1.501 1.494 0 0 1-2.123 0 1.501 1.494 0 0 1 0-2.114 1.501 1.494 0 0 1 1.084-.437z"></path><path fill="none" d="M24.999 2.5a4.5 4.479 0 0 0-4.156 2.763 4.5 4.479 0 0 0 .974 4.881L25 13.312l3.181-3.168a4.5 4.479 0 0 0 .977-4.88A4.5 4.479 0 0 0 24.999 2.5z"></path></svg>