<svg width="14" height="14" viewBox="0 0 14 14" fill="none" xmlns="http://www.w3.org/2000/svg">
<path d="M3.57174 1.76698C3.57443 2.11276 3.44097 2.44571 3.20019 2.6939C2.95942 2.94208 2.63066 3.08557 2.28496 3.09336C1.93998 3.0807 1.61305 2.936 1.37172 2.68914C1.1304 2.44229 0.993126 2.11217 0.988281 1.76698C1.00328 1.43068 1.14559 1.11265 1.38638 0.877383C1.62716 0.642113 1.9484 0.507203 2.28496 0.5C2.62055 0.507337 2.94065 0.642582 3.17983 0.878085C3.41901 1.11359 3.55921 1.43156 3.57174 1.76698ZM1.12686 5.44916C1.12686 4.68699 1.61188 4.80577 2.28496 4.80577C2.95805 4.80577 3.43317 4.68699 3.43317 5.44916V12.8729C3.43317 13.645 2.94815 13.4866 2.28496 13.4866C1.62178 13.4866 1.12686 13.645 1.12686 12.8729V5.44916Z" stroke="white" stroke-linecap="round" stroke-linejoin="round"/>
<path d="M5.43359 5.44927C5.43359 5.02364 5.59196 4.86527 5.83942 4.81578C6.08688 4.76628 6.93813 4.81578 7.23508 4.81578C7.53203 4.81578 7.65081 5.30079 7.64091 5.66703C7.89492 5.32613 8.23216 5.05611 8.62037 4.8828C9.00857 4.70949 9.43475 4.6387 9.85814 4.6772C10.2739 4.65178 10.6904 4.71412 11.0805 4.86015C11.4705 5.00618 11.8256 5.23265 12.1224 5.52484C12.4193 5.81703 12.6513 6.1684 12.8035 6.55613C12.9557 6.94386 13.0246 7.35927 13.0058 7.77537V12.8433C13.0058 13.6154 12.5307 13.457 11.8576 13.457C11.1845 13.457 10.7094 13.6154 10.7094 12.8433V8.88399C10.7268 8.68021 10.7002 8.47508 10.6313 8.28252C10.5624 8.08996 10.4528 7.91448 10.3101 7.768C10.1674 7.62152 9.99479 7.50747 9.80408 7.43359C9.61338 7.35972 9.40901 7.32774 9.20485 7.33985C9.00164 7.33469 8.79965 7.37275 8.61225 7.45152C8.42486 7.53028 8.25633 7.64796 8.11783 7.79675C7.97934 7.94555 7.87402 8.12206 7.80887 8.31461C7.74372 8.50716 7.72021 8.71136 7.7399 8.91368V12.873C7.7399 13.6451 7.25488 13.4867 6.58179 13.4867C5.90871 13.4867 5.43359 13.6451 5.43359 12.873V5.44927Z" stroke="white" stroke-linecap="round" stroke-linejoin="round"/>
</svg>
