<svg viewBox="0 0 34 34" fill="none" xmlns="http://www.w3.org/2000/svg">
<path fill-rule="evenodd" clip-rule="evenodd" d="M21.5742 33.9482L21.5742 30.8533C21.7898 30.8533 22.6886 30.6938 23.8663 29.9083L26.3788 32.4217L31.4927 27.0282L29.4596 24.8146C30.0825 24.1915 30.8555 22.9397 30.8555 21.5686L33.9492 21.5686V13.8313H30.8555C30.8555 13.6818 30.7613 13.2452 30.5132 12.6868C30.2731 12.1463 29.9184 11.5601 29.4596 11.1012L32.0377 8.52207L26.3788 2.97825L23.8663 5.49161C23.6401 5.34071 23.2095 5.10009 22.6898 4.89861C22.1675 4.69608 21.8626 4.55897 21.3316 4.55897V0.948242L13.5669 0.948277V4.559C13.0358 4.559 12.7309 4.69608 12.2086 4.89861C11.689 5.10009 11.2584 5.34071 11.0321 5.49161L8.51969 2.97825L2.8607 8.52207L5.43882 11.1012C4.98006 11.5601 4.62538 12.1463 4.38525 12.6868C4.13718 13.2452 4.04297 13.6818 4.04297 13.8313H0.949219L0.949219 21.5686H4.04297C4.04297 22.9397 4.81594 24.1915 5.43882 24.8146L2.8607 26.8779L8.51969 32.4217L11.0321 29.9083C12.2099 30.6938 13.1086 30.8533 13.3242 30.8533V33.9482H21.5742ZM17.9648 25.2221C22.5212 25.2221 25.1836 22.0844 25.1836 17.9579C25.1836 13.3998 21.5742 10.7364 17.9648 10.7364C14.3555 10.7364 10.6804 13.3998 10.6804 17.9579C10.6804 22.5159 13.8398 25.2221 17.9648 25.2221Z" fill="#01153C"/>
</svg>
