<svg width="14" height="15" viewBox="0 0 14 15" fill="none" xmlns="http://www.w3.org/2000/svg">
<g clip-path="url(#clip0_304_1403)">
<path d="M5.24782 13.4819C4.63328 13.8783 3.90097 14.0511 3.17402 13.9712C2.44708 13.8912 1.76983 13.5634 1.25617 13.0428L0.807105 12.6037C0.610232 12.4023 0.5 12.1319 0.5 11.8503C0.5 11.5687 0.610232 11.2982 0.807105 11.0969L2.71312 9.21085C2.91281 9.01461 3.18158 8.90465 3.46156 8.90465C3.74153 8.90465 4.01031 9.01461 4.20999 9.21085C4.41136 9.40773 4.6818 9.51796 4.96342 9.51796C5.24504 9.51796 5.51547 9.40773 5.71684 9.21085L8.71058 6.21711C8.81045 6.11869 8.88976 6.0014 8.94389 5.87206C8.99802 5.74272 9.0259 5.6039 9.0259 5.46369C9.0259 5.32347 8.99802 5.18466 8.94389 5.05531C8.88976 4.92597 8.81045 4.80868 8.71058 4.71026C8.51434 4.51058 8.40438 4.2418 8.40438 3.96183C8.40438 3.68185 8.51434 3.41308 8.71058 3.21339L10.6066 1.31736C10.808 1.12048 11.0784 1.01025 11.36 1.01025C11.6417 1.01025 11.9121 1.12048 12.1135 1.31736L12.5526 1.76642C13.0731 2.28008 13.4009 2.95733 13.4809 3.68427C13.5609 4.41122 13.3881 5.14353 12.9916 5.75807C10.9259 8.80244 8.29751 11.424 5.24782 13.4819Z" stroke="white" stroke-linecap="round" stroke-linejoin="round"/>
</g>
<defs>
<clipPath id="clip0_304_1403">
<rect width="14" height="14" fill="white" transform="translate(0 0.5)"/>
</clipPath>
</defs>
</svg>
