<svg width="24" height="25" viewBox="0 0 24 25" fill="none" xmlns="http://www.w3.org/2000/svg">
<path d="M18.002 22C17.3087 22 16.7183 21.7567 16.231 21.27C15.7437 20.7847 15.5 20.1947 15.5 19.5C15.5 19.3667 15.5117 19.229 15.535 19.087C15.5577 18.9443 15.592 18.8103 15.638 18.685L7.896 14.123C7.65133 14.399 7.36667 14.614 7.042 14.768C6.718 14.9227 6.37067 15 6 15C5.30533 15 4.71533 14.7573 4.23 14.272C3.74333 13.786 3.5 13.196 3.5 12.502C3.5 11.808 3.74333 11.2177 4.23 10.731C4.71667 10.2443 5.30667 10.0007 6 10C6.37067 10 6.718 10.0773 7.042 10.232C7.36667 10.386 7.65133 10.601 7.896 10.877L15.638 6.315C15.592 6.18967 15.5577 6.05567 15.535 5.913C15.5117 5.771 15.5 5.63333 15.5 5.5C15.5 4.80533 15.743 4.21533 16.229 3.73C16.7143 3.24333 17.304 3 17.998 3C18.692 3 19.2823 3.243 19.769 3.729C20.2557 4.215 20.4993 4.80467 20.5 5.498C20.5007 6.19133 20.2573 6.78167 19.77 7.269C19.2847 7.75633 18.6947 8 18 8C17.6293 8 17.282 7.92267 16.958 7.768C16.6333 7.614 16.3487 7.399 16.104 7.123L8.362 11.685C8.408 11.8103 8.44233 11.9437 8.465 12.085C8.48833 12.227 8.5 12.364 8.5 12.496C8.5 12.628 8.48833 12.7663 8.465 12.911C8.44167 13.0557 8.40733 13.1903 8.362 13.315L16.104 17.877C16.3487 17.601 16.6333 17.386 16.958 17.232C17.282 17.0773 17.6293 17 18 17C18.6947 17 19.2847 17.243 19.77 17.729C20.2567 18.2143 20.5 18.804 20.5 19.498C20.5 20.192 20.2573 20.7823 19.772 21.269C19.2867 21.7557 18.6967 21.9993 18.002 22ZM18 7C18.4113 7 18.7643 6.853 19.059 6.559C19.3537 6.265 19.5007 5.912 19.5 5.5C19.4993 5.088 19.3523 4.735 19.059 4.441C18.7657 4.147 18.4127 4 18 4C17.5873 4 17.2343 4.147 16.941 4.441C16.6477 4.735 16.5007 5.088 16.5 5.5C16.4993 5.912 16.6463 6.265 16.941 6.559C17.2357 6.853 17.5887 7 18 7ZM6 14C6.41133 14 6.76433 13.853 7.059 13.559C7.35367 13.265 7.50067 12.912 7.5 12.5C7.49933 12.088 7.35233 11.735 7.059 11.441C6.76567 11.147 6.41267 11 6 11C5.58733 11 5.23433 11.147 4.941 11.441C4.64767 11.735 4.50067 12.088 4.5 12.5C4.49933 12.912 4.64633 13.265 4.941 13.559C5.23567 13.853 5.58867 14 6 14ZM18 21C18.4113 21 18.7643 20.853 19.059 20.559C19.3537 20.265 19.5007 19.912 19.5 19.5C19.4993 19.088 19.3523 18.735 19.059 18.441C18.7657 18.147 18.4127 18 18 18C17.5873 18 17.2343 18.147 16.941 18.441C16.6477 18.735 16.5007 19.088 16.5 19.5C16.4993 19.912 16.6463 20.265 16.941 20.559C17.2357 20.853 17.5887 21 18 21Z" fill="black"/>
</svg>
