<svg width="739" height="468" viewBox="0 0 739 468" fill="none" xmlns="http://www.w3.org/2000/svg">
<mask id="path-1-outside-1_353_928" maskUnits="userSpaceOnUse" x="8" y="116" width="725" height="227" fill="black">
<rect fill="white" x="8" y="116" width="725" height="227"/>
<path d="M98.9317 125.789H157.923L240.63 333H177.785L162.37 293.574H94.4851L78.7739 333H15.9288L98.9317 125.789ZM148.141 247.033L128.279 188.931L108.418 247.033H148.141ZM395.496 337.447C374.548 337.447 355.477 332.901 338.283 323.81C321.287 314.72 307.849 302.072 297.967 285.866C288.284 269.463 283.442 250.689 283.442 229.543C283.442 208.397 288.284 189.622 297.967 173.219C307.849 156.816 321.287 144.069 338.283 134.979C355.477 125.888 374.548 121.342 395.496 121.342C416.444 121.342 435.318 125.888 452.116 134.979C469.112 144.069 482.451 156.816 492.135 173.219C502.016 189.622 506.957 208.397 506.957 229.543C506.957 250.689 502.016 269.463 492.135 285.866C482.451 302.072 469.112 314.72 452.116 323.81C435.318 332.901 416.444 337.447 395.496 337.447ZM395.496 279.937C404.587 279.937 412.788 277.961 420.1 274.009C427.61 269.858 433.539 264.029 437.887 256.519C442.234 248.811 444.408 239.819 444.408 229.543C444.408 214.326 439.764 202.172 430.476 193.081C421.187 183.99 409.527 179.445 395.496 179.445C381.267 179.445 369.409 183.99 359.923 193.081C350.635 202.172 345.991 214.326 345.991 229.543C345.991 239.819 348.164 248.811 352.512 256.519C356.86 264.029 362.789 269.858 370.299 274.009C377.808 277.961 386.207 279.937 395.496 279.937ZM610.055 177.369H554.325V125.789H727.149V177.369H671.418V333H610.055V177.369Z"/>
</mask>
<path d="M98.9317 125.789V120.761H95.5294L94.2643 123.919L98.9317 125.789ZM157.923 125.789L162.593 123.925L161.33 120.761H157.923V125.789ZM240.63 333V338.028H248.05L245.299 331.136L240.63 333ZM177.785 333L173.102 334.831L174.352 338.028H177.785V333ZM162.37 293.574L167.052 291.743L165.802 288.546H162.37V293.574ZM94.4851 293.574V288.546H91.0763L89.8144 291.712L94.4851 293.574ZM78.7739 333V338.028H82.1827L83.4446 334.861L78.7739 333ZM15.9288 333L11.2613 331.13L8.49836 338.028H15.9288V333ZM148.141 247.033V252.061H155.173L152.898 245.406L148.141 247.033ZM128.279 188.931L133.037 187.304L128.279 173.386L123.522 187.304L128.279 188.931ZM108.418 247.033L103.66 245.406L101.385 252.061H108.418V247.033ZM98.9317 130.817H157.923V120.761H98.9317V130.817ZM153.253 127.653L235.96 334.864L245.299 331.136L162.593 123.925L153.253 127.653ZM240.63 327.972H177.785V338.028H240.63V327.972ZM182.467 331.169L167.052 291.743L157.687 295.404L173.102 334.831L182.467 331.169ZM162.37 288.546H94.4851V298.602H162.37V288.546ZM89.8144 291.712L74.1031 331.139L83.4446 334.861L99.1559 295.435L89.8144 291.712ZM78.7739 327.972H15.9288V338.028H78.7739V327.972ZM20.5962 334.87L103.599 127.659L94.2643 123.919L11.2613 331.13L20.5962 334.87ZM152.898 245.406L133.037 187.304L123.522 190.557L143.383 248.659L152.898 245.406ZM123.522 187.304L103.66 245.406L113.175 248.659L133.037 190.557L123.522 187.304ZM108.418 252.061H148.141V242.005H108.418V252.061ZM338.283 323.81L335.912 328.244L335.922 328.25L335.933 328.255L338.283 323.81ZM297.967 285.866L293.638 288.422L293.656 288.453L293.675 288.484L297.967 285.866ZM297.967 173.219L293.661 170.625L293.649 170.644L293.638 170.663L297.967 173.219ZM338.283 134.979L335.933 130.534L335.922 130.539L335.912 130.545L338.283 134.979ZM452.116 134.979L449.723 139.401L449.733 139.406L449.744 139.412L452.116 134.979ZM492.135 173.219L487.805 175.775L487.817 175.795L487.828 175.814L492.135 173.219ZM492.135 285.866L487.828 283.272L487.824 283.279L487.819 283.287L492.135 285.866ZM452.116 323.81L449.744 319.377L449.733 319.383L449.723 319.388L452.116 323.81ZM420.1 274.009L422.491 278.432L422.512 278.421L422.532 278.409L420.1 274.009ZM437.887 256.519L442.238 259.038L442.252 259.014L442.266 258.989L437.887 256.519ZM430.476 193.081L433.993 189.487L430.476 193.081ZM359.923 193.081L356.444 189.451L356.425 189.469L356.406 189.487L359.923 193.081ZM352.512 256.519L348.133 258.989L348.147 259.014L348.161 259.038L352.512 256.519ZM370.299 274.009L367.867 278.409L367.911 278.434L367.957 278.458L370.299 274.009ZM395.496 332.419C375.302 332.419 357.047 328.044 340.633 319.365L335.933 328.255C353.906 337.758 373.793 342.475 395.496 342.475V332.419ZM340.655 319.377C324.437 310.702 311.667 298.676 302.26 283.249L293.675 288.484C304.03 305.467 318.138 318.737 335.912 328.244L340.655 319.377ZM302.297 283.31C293.12 267.764 288.47 249.891 288.47 229.543H278.414C278.414 251.486 283.448 271.162 293.638 288.422L302.297 283.31ZM288.47 229.543C288.47 209.194 293.12 191.321 302.297 175.775L293.638 170.663C283.448 187.924 278.414 207.599 278.414 229.543H288.47ZM302.274 175.814C311.685 160.192 324.452 148.079 340.655 139.412L335.912 130.545C318.122 140.06 304.013 153.44 293.661 170.625L302.274 175.814ZM340.633 139.424C357.047 130.745 375.302 126.37 395.496 126.37V116.315C373.793 116.315 353.906 121.031 335.933 130.534L340.633 139.424ZM395.496 126.37C415.691 126.37 433.729 130.745 449.723 139.401L454.509 130.557C436.906 121.031 417.197 116.315 395.496 116.315V126.37ZM449.744 139.412C465.938 148.074 478.596 160.176 487.805 175.775L496.465 170.663C486.307 153.457 472.285 140.065 454.487 130.545L449.744 139.412ZM487.828 175.814C497.189 191.354 501.929 209.213 501.929 229.543H511.985C511.985 207.581 506.843 187.891 496.442 170.625L487.828 175.814ZM501.929 229.543C501.929 249.873 497.189 267.732 487.828 283.272L496.442 288.461C506.843 271.194 511.985 251.505 511.985 229.543H501.929ZM487.819 283.287C478.613 298.692 465.953 310.707 449.744 319.377L454.487 328.244C472.27 318.732 486.289 305.451 496.451 288.445L487.819 283.287ZM449.723 319.388C433.729 328.044 415.691 332.419 395.496 332.419V342.475C417.197 342.475 436.906 337.758 454.509 328.232L449.723 319.388ZM395.496 284.965C405.341 284.965 414.377 282.818 422.491 278.432L417.709 269.585C411.199 273.105 403.832 274.909 395.496 274.909V284.965ZM422.532 278.409C430.85 273.813 437.439 267.328 442.238 259.038L433.535 254C429.639 260.729 424.37 265.904 417.668 269.608L422.532 278.409ZM442.266 258.989C447.103 250.414 449.436 240.544 449.436 229.543H439.38C439.38 239.095 437.366 247.209 433.507 254.048L442.266 258.989ZM449.436 229.543C449.436 213.223 444.413 199.686 433.993 189.487L426.959 196.674C435.116 204.657 439.38 215.428 439.38 229.543H449.436ZM433.993 189.487C423.685 179.399 410.727 174.417 395.496 174.417V184.473C408.328 184.473 418.689 188.58 426.959 196.674L433.993 189.487ZM395.496 174.417C380.088 174.417 366.948 179.384 356.444 189.451L363.402 196.711C371.87 188.596 382.445 184.473 395.496 184.473V174.417ZM356.406 189.487C345.986 199.686 340.963 213.223 340.963 229.543H351.019C351.019 215.428 355.283 204.657 363.44 196.674L356.406 189.487ZM340.963 229.543C340.963 240.544 343.296 250.414 348.133 258.989L356.891 254.048C353.033 247.209 351.019 239.095 351.019 229.543H340.963ZM348.161 259.038C352.96 267.328 359.549 273.813 367.867 278.409L372.731 269.608C366.029 265.904 360.76 260.729 356.864 254L348.161 259.038ZM367.957 278.458C376.255 282.826 385.47 284.965 395.496 284.965V274.909C386.945 274.909 379.361 273.097 372.64 269.559L367.957 278.458ZM610.055 177.369H615.083V172.341H610.055V177.369ZM554.325 177.369H549.297V182.397H554.325V177.369ZM554.325 125.789V120.761H549.297V125.789H554.325ZM727.149 125.789H732.177V120.761H727.149V125.789ZM727.149 177.369V182.397H732.177V177.369H727.149ZM671.418 177.369V172.341H666.39V177.369H671.418ZM671.418 333V338.028H676.446V333H671.418ZM610.055 333H605.027V338.028H610.055V333ZM610.055 172.341H554.325V182.397H610.055V172.341ZM559.353 177.369V125.789H549.297V177.369H559.353ZM554.325 130.817H727.149V120.761H554.325V130.817ZM722.121 125.789V177.369H732.177V125.789H722.121ZM727.149 172.341H671.418V182.397H727.149V172.341ZM666.39 177.369V333H676.446V177.369H666.39ZM671.418 327.972H610.055V338.028H671.418V327.972ZM615.083 333V177.369H605.027V333H615.083Z" fill="#888888" fill-opacity="0.11" mask="url(#path-1-outside-1_353_928)"/>
</svg>
