<?xml version="1.0" encoding="UTF-8"?>
<svg version="1.1" xmlns="http://www.w3.org/2000/svg" width="137" height="138">
<path d="M0 0 C3.54148371 2.81020389 6.79900287 5.809984 10 9 C10.63808594 9.61488281 11.27617188 10.22976562 11.93359375 10.86328125 C22.86512264 22.23304515 25.15749854 34.04759028 24.91259766 49.23144531 C24.87502485 51.99817046 24.91241051 54.75695171 24.95703125 57.5234375 C25.00317632 73.84782874 20.37389892 84.61903664 8.80859375 96.3125 C7.88175781 97.199375 6.95492187 98.08625 6 99 C5.20722656 99.763125 4.41445312 100.52625 3.59765625 101.3125 C-9.81790079 113.09854678 -27.24891294 115.96448011 -44.50390625 115.1953125 C-60.90943539 113.91162477 -75.66129738 105.37611601 -86.48046875 93.2109375 C-99.30329872 76.9300244 -102.76978706 60.16693453 -100.6875 39.96875 C-100.2637728 37.57771794 -99.70805093 35.32174839 -99 33 C-98.77828125 32.23171875 -98.5565625 31.4634375 -98.328125 30.671875 C-94.33682346 18.99920069 -85.77985615 8.34384803 -76 1 C-75.37867187 0.53335937 -74.75734375 0.06671875 -74.1171875 -0.4140625 C-51.95077359 -15.53174228 -21.94073668 -15.01208299 0 0 Z M-40 14 C-40 14.33 -40 14.66 -40 15 C-34.71800407 16.19988045 -34.71800407 16.19988045 -30 14 C-33.3 14 -36.6 14 -40 14 Z M-18.484375 23.42578125 C-18.90203125 24.04839844 -19.3196875 24.67101563 -19.75 25.3125 C-20.39195313 26.23482422 -20.39195313 26.23482422 -21.046875 27.17578125 C-22.23154241 29.10012227 -22.23154241 29.10012227 -22 32 C-21.09636719 32.14695312 -20.19273438 32.29390625 -19.26171875 32.4453125 C-9.5077187 34.30017153 -9.5077187 34.30017153 -6.6875 38.1875 C-6.460625 39.115625 -6.23375 40.04375 -6 41 C-5.34 41 -4.68 41 -4 41 C-4.67738393 34.36163745 -6.13087252 29.25253825 -10.4375 24.0625 C-13.26853802 21.78385964 -15.53749146 20.59522206 -18.484375 23.42578125 Z M-54 23 C-55.33927721 24.45287661 -56.67126847 25.91247259 -58 27.375 C-59.11375 28.59316406 -59.11375 28.59316406 -60.25 29.8359375 C-62.20959813 31.79533992 -62.20959813 31.79533992 -62 34 C-49.13 33.01 -49.13 33.01 -36 32 C-41.09138236 26.90861764 -47.27281446 25.10785147 -54 23 Z M-68 29 C-70.66116712 31.66116712 -70.9951775 32.90354991 -71.1875 36.75 C-71.125625 37.8225 -71.06375 38.895 -71 40 C-70.01 40.495 -70.01 40.495 -69 41 C-69 40.01 -69 39.02 -69 38 C-68.34 38 -67.68 38 -67 38 C-67 35.03 -67 32.06 -67 29 C-67.33 29 -67.66 29 -68 29 Z M-72 58 C-72.99 59.98 -73.98 61.96 -75 64 C-74.01 64.33 -73.02 64.66 -72 65 C-71.71125 66.051875 -71.4225 67.10375 -71.125 68.1875 C-69.17222585 74.80523462 -64.95778847 78.74007801 -59 82 C-45.06966313 87.0903678 -29.48086932 88.09143503 -15.6875 81.875 C-10.24711388 78.93543653 -5.78282259 74.56564517 -3 69 C-2.9310528 67.62657169 -2.91532292 66.24997898 -2.9375 64.875 C-2.958125 63.59625 -2.97875 62.3175 -3 61 C-3.99 61 -4.98 61 -6 61 C-6.495 61.804375 -6.99 62.60875 -7.5 63.4375 C-10.9261342 66.94928755 -13.55959377 66.58812529 -18.30078125 66.84765625 C-21.6175118 67.03485233 -24.08459328 67.3554116 -27 69 C-28.39038745 72.49026242 -28.39038745 72.49026242 -29 76 C-30 77 -30 77 -32.72265625 77.09765625 C-33.82480469 77.08605469 -34.92695312 77.07445313 -36.0625 77.0625 C-37.71958984 77.04896484 -37.71958984 77.04896484 -39.41015625 77.03515625 C-40.26480469 77.02355469 -41.11945313 77.01195313 -42 77 C-42.309375 75.88625 -42.61875 74.7725 -42.9375 73.625 C-43.82326483 70.2054845 -43.82326483 70.2054845 -45 68 C-50.62231456 67.10756912 -56.05447006 66.9160572 -61.73828125 67.0625 C-63.9772083 67.00062982 -65.85698077 66.62770357 -68 66 C-68.33 63.69 -68.66 61.38 -69 59 C-69.99 58.67 -70.98 58.34 -72 58 Z " fill="#B326AE" transform="translate(113,22)"/>
<path d="M0 0 C2.5625 -0.25 2.5625 -0.25 5 0 C6 1 6 1 6.125 3.9375 C6 7 6 7 5 9 C5.66 9 6.32 9 7 9 C7.84454356 5.62182575 8.10844919 3.32534757 7 0 C8.32 0.33 9.64 0.66 11 1 C11.93065133 3.60582371 12.14917407 4.64198224 11.0625 7.25 C10.711875 7.8275 10.36125 8.405 10 9 C12.97 9.495 12.97 9.495 16 10 C16.28875 10.9075 16.5775 11.815 16.875 12.75 C17.81203427 15.82646935 17.81203427 15.82646935 19.04272461 17.71728516 C20.42261587 21.00776801 20.38481197 24.25773519 20.44140625 27.7734375 C20.45517807 28.5336319 20.46894989 29.29382629 20.48313904 30.07705688 C20.50639037 31.68915578 20.52366636 33.30135036 20.53540039 34.91357422 C20.56204427 37.33360651 20.63688189 39.74905879 20.71289062 42.16796875 C20.94427308 55.82699752 17.39881407 66.32474781 7.6875 76.375 C5.82463565 78.29340554 3.93382209 80.1495555 2 82 C1.20722656 82.763125 0.41445312 83.52625 -0.40234375 84.3125 C-13.81790079 96.09854678 -31.24891294 98.96448011 -48.50390625 98.1953125 C-64.87152643 96.91459105 -79.8394372 88.38971589 -90.515625 76.10546875 C-97.88385055 66.60240963 -102.45319643 58.95600686 -102.859375 46.78515625 C-102.87959956 43.91455709 -102.87959956 43.91455709 -104 41 C-104.11829437 39.1485555 -104.17514861 37.29267862 -104.1875 35.4375 C-104.20167969 34.46683594 -104.21585938 33.49617188 -104.23046875 32.49609375 C-104 30 -104 30 -102 28 C-100.93328048 31.20015856 -101.05154528 32.88544294 -101.4375 36.1875 C-101.53933594 37.08855469 -101.64117187 37.98960938 -101.74609375 38.91796875 C-101.82988281 39.60503906 -101.91367188 40.29210937 -102 41 C-101.34 41 -100.68 41 -100 41 C-100 40.34 -100 39.68 -100 39 C-98.35 39.33 -96.7 39.66 -95 40 C-94.67 40.99 -94.34 41.98 -94 43 C-92.68 43 -91.36 43 -90 43 C-90.495 42.525625 -90.99 42.05125 -91.5 41.5625 C-93.72647666 37.7589357 -93.67389679 34.30374993 -93 30 C-91.4375 26.9375 -91.4375 26.9375 -89 25 C-86.66794808 24.92268063 -84.33180829 24.91565221 -82 25 C-81.97111854 28.31248187 -81.95324201 31.62493167 -81.9375 34.9375 C-81.92912109 35.88302734 -81.92074219 36.82855469 -81.91210938 37.80273438 C-81.90727539 39.15141602 -81.90727539 39.15141602 -81.90234375 40.52734375 C-81.89448853 41.77632446 -81.89448853 41.77632446 -81.88647461 43.05053711 C-82 45 -82 45 -83 46 C-81.515 46.495 -81.515 46.495 -80 47 C-78.3125 48.5625 -78.3125 48.5625 -77 50 C-77 49.34 -77 48.68 -77 48 C-76.34 48 -75.68 48 -75 48 C-74.7525 49.051875 -74.505 50.10375 -74.25 51.1875 C-72.44093226 57.41873332 -68.59482388 60.89176451 -63 64 C-49.05463383 69.11027262 -33.40787982 70.10378448 -19.625 63.8125 C-13.92779302 60.6982711 -9.94126068 56.93451859 -7.9375 50.6875 C-7.4734375 49.3571875 -7.4734375 49.3571875 -7 48 C-5.35 47.34 -3.7 46.68 -2 46 C-2 38.08 -2 30.16 -2 22 C-3.32 22 -4.64 22 -6 22 C-6.99 18.7 -7.98 15.4 -9 12 C-8.01 12.33 -7.02 12.66 -6 13 C-5.71125 13.94875 -5.4225 14.8975 -5.125 15.875 C-3.76731847 19.64633759 -2.44321909 20.18777943 1 22 C1 22.66 1 23.32 1 24 C1.66 24 2.32 24 3 24 C3 18.39 3 12.78 3 7 C2.01 7 1.02 7 0 7 C-0.33 7.66 -0.66 8.32 -1 9 C-1.625 6.1875 -1.625 6.1875 -2 3 C-1.34 2.01 -0.68 1.02 0 0 Z " fill="#8123CA" transform="translate(117,39)"/>
<path d="M0 0 C0.747052 0.00142502 1.494104 0.00285004 2.26379395 0.00431824 C3.53652161 -0.00029671 3.53652161 -0.00029671 4.83496094 -0.00500488 C5.75571411 0.00218063 6.67646729 0.00936615 7.62512207 0.01676941 C8.57520142 0.01722763 9.52528076 0.01768585 10.50415039 0.01815796 C12.52170047 0.02118449 14.53924812 0.02908268 16.5567627 0.04142761 C19.61609375 0.05950022 22.6751186 0.06193849 25.73449707 0.06169128 C27.69804131 0.06661398 29.66158352 0.07244554 31.62512207 0.07926941 C32.5296814 0.08038223 33.43424072 0.08149506 34.36621094 0.0826416 C51.11406986 0.20493595 51.11406986 0.20493595 54.15637207 3.24723816 C55.66747684 7.76734455 55.34049003 12.47355784 55.34387207 17.18473816 C55.35611816 18.078703 55.36836426 18.97266785 55.38098145 19.89372253 C55.40002535 28.44443599 55.40002535 28.44443599 53.15637207 32.24723816 C48.48184655 34.58450092 44.25014455 34.33074263 39.15637207 34.24723816 C38.16637207 34.57723816 37.17637207 34.90723816 36.15637207 35.24723816 C35.43975137 37.5657169 34.7739518 39.90043519 34.15637207 42.24723816 C31.64624244 44.75736779 30.6883197 44.54445425 27.21887207 44.55973816 C26.34359863 44.57649597 25.4683252 44.59325378 24.56652832 44.61051941 C22.15637207 44.24723816 22.15637207 44.24723816 20.41418457 42.95817566 C18.47188033 40.31615933 17.92869986 37.39595917 17.15637207 34.24723816 C15.89824707 34.28848816 14.64012207 34.32973816 13.34387207 34.37223816 C9.62522467 34.34277186 5.97311583 34.14190483 2.28137207 33.68473816 C1.3764502 33.5803241 0.47152832 33.47591003 -0.46081543 33.36833191 C-3.42375708 31.97429215 -4.23365148 30.3603451 -5.3338623 27.32658386 C-6.24939119 23.59212051 -6.23543426 19.9479755 -6.15612793 16.12223816 C-6.15935059 15.3371991 -6.16257324 14.55216003 -6.16589355 13.74333191 C-6.04594583 0.81078644 -6.04594583 0.81078644 0 0 Z " fill="#2C3043" transform="translate(50.8436279296875,55.75276184082031)"/>
<path d="M0 0 C0.02888146 3.31248187 0.04675799 6.62493167 0.0625 9.9375 C0.07087891 10.88302734 0.07925781 11.82855469 0.08789062 12.80273438 C0.09272461 14.15141602 0.09272461 14.15141602 0.09765625 15.52734375 C0.10551147 16.77632446 0.10551147 16.77632446 0.11352539 18.05053711 C0 20 0 20 -1 21 C-0.01 21.33 0.98 21.66 2 22 C3.6875 23.5625 3.6875 23.5625 5 25 C5.33 24.34 5.66 23.68 6 23 C5.95875 24.0725 5.9175 25.145 5.875 26.25 C6.01061228 30.47777515 6.01061228 30.47777515 8 34 C9.485 34.495 9.485 34.495 11 35 C12.1875 37.0625 12.1875 37.0625 13 39 C10.03 38.505 10.03 38.505 7 38 C7.01160156 38.71027344 7.02320312 39.42054687 7.03515625 40.15234375 C7.04417969 41.07144531 7.05320312 41.99054688 7.0625 42.9375 C7.07410156 43.85402344 7.08570312 44.77054688 7.09765625 45.71484375 C7 48 7 48 6 49 C3.625 49.25 3.625 49.25 1 49 C-0.5625 47.625 -0.5625 47.625 -2 46 C-4.09989652 44.82425289 -4.09989652 44.82425289 -6 44 C-6.33 45.32 -6.66 46.64 -7 48 C-7.33 46.68 -7.66 45.36 -8 44 C-9.32 44 -10.64 44 -12 44 C-12 43.01 -12 42.02 -12 41 C-12.61488281 40.90203125 -13.22976562 40.8040625 -13.86328125 40.703125 C-16 40 -16 40 -18.1875 36.75 C-20.42811046 31.92743609 -20.60862317 27.10984092 -20.82421875 21.85546875 C-20.8816021 18.92629345 -20.8816021 18.92629345 -22 16 C-22.11829437 14.1485555 -22.17514861 12.29267862 -22.1875 10.4375 C-22.20167969 9.46683594 -22.21585938 8.49617188 -22.23046875 7.49609375 C-22 5 -22 5 -20 3 C-18.93328048 6.20015856 -19.05154528 7.88544294 -19.4375 11.1875 C-19.53933594 12.08855469 -19.64117187 12.98960938 -19.74609375 13.91796875 C-19.82988281 14.60503906 -19.91367187 15.29210937 -20 16 C-19.34 16 -18.68 16 -18 16 C-18 15.34 -18 14.68 -18 14 C-16.35 14.33 -14.7 14.66 -13 15 C-12.67 15.99 -12.34 16.98 -12 18 C-10.68 18 -9.36 18 -8 18 C-8.495 17.525625 -8.99 17.05125 -9.5 16.5625 C-11.72647666 12.7589357 -11.67389679 9.30374993 -11 5 C-8.2058739 -0.47648716 -5.79070703 -0.20946548 0 0 Z " fill="#4E23E8" transform="translate(35,64)"/>
<path d="M0 0 C1.25425781 0.00902344 2.50851563 0.01804688 3.80078125 0.02734375 C4.75339844 0.03894531 5.70601562 0.05054688 6.6875 0.0625 C4.7075 1.0525 4.7075 1.0525 2.6875 2.0625 C3.59628906 1.86720703 3.59628906 1.86720703 4.5234375 1.66796875 C11.75173279 0.47808014 16.67503708 1.85377596 22.6875 6.0625 C23.3475 7.0525 24.0075 8.0425 24.6875 9.0625 C24.08421875 9.13339844 23.4809375 9.20429687 22.859375 9.27734375 C19.86827346 10.35865924 19.35372754 11.83188457 17.9375 14.625 C17.50953125 15.45128906 17.0815625 16.27757813 16.640625 17.12890625 C16.16882813 18.08603516 16.16882813 18.08603516 15.6875 19.0625 C16.925 18.9696875 16.925 18.9696875 18.1875 18.875 C22.56943696 19.10974662 25.64245082 20.38868654 29.6875 22.0625 C29.3575 22.7225 29.0275 23.3825 28.6875 24.0625 C28.3575 23.7325 28.0275 23.4025 27.6875 23.0625 C18.03475919 21.74621716 8.28838822 21.72702388 -1.4375 21.5 C-3.1744877 21.45672119 -4.911467 21.41310422 -6.6484375 21.36914062 C-10.86970499 21.26302656 -15.0910598 21.16149471 -19.3125 21.0625 C-19.3125 20.7325 -19.3125 20.4025 -19.3125 20.0625 C-12.7125 19.4025 -6.1125 18.7425 0.6875 18.0625 C-5.75342425 14.77383519 -5.75342425 14.77383519 -12.3125 12.3125 C-13.4571875 11.94898438 -13.4571875 11.94898438 -14.625 11.578125 C-15.181875 11.40796875 -15.73875 11.2378125 -16.3125 11.0625 C-16.75980469 11.58199219 -17.20710938 12.10148437 -17.66796875 12.63671875 C-21.09451031 16.58929654 -24.55696679 20.42077082 -28.3125 24.0625 C-28.9725 23.7325 -29.6325 23.4025 -30.3125 23.0625 C-30.3125 13.61519321 -30.3125 13.61519321 -27.5 10.75 C-19.4604483 3.03792495 -10.96115212 -0.10244067 0 0 Z " fill="#F7F4F7" transform="translate(75.3125,34.9375)"/>
<path d="M0 0 C11.65102674 1.39533254 20.98781021 8.88854414 29 17 C29.63550781 17.61359375 30.27101563 18.2271875 30.92578125 18.859375 C36.70189991 24.85321875 42.72005914 33.98391676 43.19140625 42.4296875 C43.09666016 43.70199219 43.09666016 43.70199219 43 45 C39.06153846 40.69230769 39.06153846 40.69230769 38.75 37.1875 C38.8325 36.465625 38.915 35.74375 39 35 C36.69 35 34.38 35 32 35 C32.50603992 32.83125748 32.99983813 31.00032373 34 29 C33.505 27.515 33.505 27.515 33 26 C32.01 26.495 32.01 26.495 31 27 C31 27.99 31 28.98 31 30 C30.6937566 31.33981486 30.36548445 32.67511887 30 34 C29.34 34 28.68 34 28 34 C28 31.36 28 28.72 28 26 C26.35 26 24.7 26 23 26 C22.67 27.98 22.34 29.96 22 32 C23.32 32 24.64 32 26 32 C26 37.61 26 43.22 26 49 C24 49 24 49 22.5625 47.625 C22.046875 47.08875 21.53125 46.5525 21 46 C20.01 45.34 19.02 44.68 18 44 C16.8125 40.875 16.8125 40.875 16 38 C16.91058531 41.07322544 17.08886184 43.80097361 17 47 C18.32 47 19.64 47 21 47 C22.94345974 50.88691948 22.18480803 55.72514581 22.1875 60 C22.19974609 61.02351563 22.21199219 62.04703125 22.22460938 63.1015625 C22.22750977 64.56722656 22.22750977 64.56722656 22.23046875 66.0625 C22.23457764 66.96097656 22.23868652 67.85945313 22.24291992 68.78515625 C22 71 22 71 20 73 C18.68 73 17.36 73 16 73 C15.34 71.68 14.68 70.36 14 69 C13.01 69.99 12.02 70.98 11 72 C11 63.09 11 54.18 11 45 C11.66 46.32 12.32 47.64 13 49 C13.66 49 14.32 49 15 49 C14.37942344 46.91534475 13.7533655 44.83232072 13.125 42.75 C12.77695313 41.58984375 12.42890625 40.4296875 12.0703125 39.234375 C11.21467611 36.64872928 10.3062454 34.37713126 9 32 C10.98 32.33 12.96 32.66 15 33 C17.09506252 29.55291141 17.09506252 29.55291141 19 26 C19.66 26 20.32 26 21 26 C21.144375 24.88625 21.28875 23.7725 21.4375 22.625 C22 19 22 19 23 17 C22.72057545 15.32345271 22.39171753 13.65391846 22 12 C21.01 12 20.02 12 19 12 C18.67 11.34 18.34 10.68 18 10 C15.74628735 9.53069588 15.74628735 9.53069588 13.125 9.375 C12.24070312 9.30023438 11.35640625 9.22546875 10.4453125 9.1484375 C8.63287027 9.03841705 6.81577843 9 5 9 C5 8.01 5 7.02 5 6 C4.34 6 3.68 6 3 6 C2.67 5.01 2.34 4.02 2 3 C1.34 2.67 0.68 2.34 0 2 C0 1.34 0 0.68 0 0 Z " fill="#DC56A2" transform="translate(94,14)"/>
<path d="M0 0 C0.89203125 0.00902344 1.7840625 0.01804688 2.703125 0.02734375 C3.37859375 0.03894531 4.0540625 0.05054688 4.75 0.0625 C4.75 0.3925 4.75 0.7225 4.75 1.0625 C3.65042969 1.20945313 2.55085938 1.35640625 1.41796875 1.5078125 C-11.20156226 3.35513111 -22.00871814 6.62518795 -30.25 17.0625 C-32.53906145 21.04347643 -32.42805065 24.52220833 -32.25 29.0625 C-31.92 28.4025 -31.59 27.7425 -31.25 27.0625 C-30.59 27.0625 -29.93 27.0625 -29.25 27.0625 C-29.26047363 27.66723145 -29.27094727 28.27196289 -29.28173828 28.89501953 C-29.32354668 31.6591367 -29.34940451 34.42318708 -29.375 37.1875 C-29.39175781 38.13882813 -29.40851562 39.09015625 -29.42578125 40.0703125 C-29.46056913 45.07976666 -29.47400047 49.45248578 -27.25 54.0625 C-26.26 54.7225 -25.27 55.3825 -24.25 56.0625 C-26.25 57.0625 -26.25 57.0625 -28.25 56.5625 C-31.22694855 54.32978859 -31.35620993 51.57381814 -32.25 48.0625 C-32.91 47.7325 -33.57 47.4025 -34.25 47.0625 C-35.24 49.5375 -35.24 49.5375 -36.25 52.0625 C-35.59 52.7225 -34.93 53.3825 -34.25 54.0625 C-34.58 54.7225 -34.91 55.3825 -35.25 56.0625 C-36.735 55.5675 -36.735 55.5675 -38.25 55.0625 C-38.25 54.4025 -38.25 53.7425 -38.25 53.0625 C-41.22 52.7325 -44.19 52.4025 -47.25 52.0625 C-47.25 51.7325 -47.25 51.4025 -47.25 51.0625 C-44.94 51.0625 -42.63 51.0625 -40.25 51.0625 C-40.25 44.4625 -40.25 37.8625 -40.25 31.0625 C-42.56 31.0625 -44.87 31.0625 -47.25 31.0625 C-47.559375 31.701875 -47.86875 32.34125 -48.1875 33 C-49.25 35.0625 -49.25 35.0625 -50.25 36.0625 C-50.83285311 41.48751744 -50.69991232 45.60636325 -47.25 50.0625 C-51.03527521 49.55097632 -52.69108688 48.85404158 -55.25 46.0625 C-56.24 45.7325 -57.23 45.4025 -58.25 45.0625 C-58.25 45.7225 -58.25 46.3825 -58.25 47.0625 C-58.91 47.0625 -59.57 47.0625 -60.25 47.0625 C-61.47989717 43.37280849 -60.81330842 40.86483187 -60.25 37.0625 C-60.58 36.7325 -60.91 36.4025 -61.25 36.0625 C-61.27705729 37.83324917 -61.29642195 39.60411711 -61.3125 41.375 C-61.32410156 42.36113281 -61.33570313 43.34726563 -61.34765625 44.36328125 C-61.37329862 47.16213849 -61.37329862 47.16213849 -60.25 50.0625 C-60.18197033 51.79045352 -60.16504355 53.52085365 -60.1875 55.25 C-60.19652344 56.15105469 -60.20554687 57.05210938 -60.21484375 57.98046875 C-60.22644531 58.66753906 -60.23804688 59.35460937 -60.25 60.0625 C-65.67861988 51.91957018 -64.19475273 35.99612361 -62.5 26.5625 C-61.28845924 21.58652902 -59.60492971 16.61597736 -57.25 12.0625 C-56.59 11.7325 -55.93 11.4025 -55.25 11.0625 C-54.92 12.3825 -54.59 13.7025 -54.25 15.0625 C-54.91 15.0625 -55.57 15.0625 -56.25 15.0625 C-56.25 16.7125 -56.25 18.3625 -56.25 20.0625 C-56.91 20.0625 -57.57 20.0625 -58.25 20.0625 C-58.085 20.578125 -57.92 21.09375 -57.75 21.625 C-57.09951 24.79613876 -57.1879266 27.83468334 -57.25 31.0625 C-56.59 31.0625 -55.93 31.0625 -55.25 31.0625 C-54.92 32.7125 -54.59 34.3625 -54.25 36.0625 C-53.858125 35.258125 -53.46625 34.45375 -53.0625 33.625 C-51.25 31.0625 -51.25 31.0625 -48.5625 30.25 C-47.799375 30.188125 -47.03625 30.12625 -46.25 30.0625 C-45.92 28.7425 -45.59 27.4225 -45.25 26.0625 C-44.59 26.0625 -43.93 26.0625 -43.25 26.0625 C-43.25 25.4025 -43.25 24.7425 -43.25 24.0625 C-42.156875 24.041875 -41.06375 24.02125 -39.9375 24 C-38.1121875 23.5359375 -38.1121875 23.5359375 -36.25 23.0625 C-33.93415258 19.10314796 -33.25 16.65738249 -33.25 12.0625 C-32.26 12.0625 -31.27 12.0625 -30.25 12.0625 C-29.92 11.0725 -29.59 10.0825 -29.25 9.0625 C-28.445625 8.93875 -27.64125 8.815 -26.8125 8.6875 C-25.966875 8.48125 -25.12125 8.275 -24.25 8.0625 C-23.92 7.4025 -23.59 6.7425 -23.25 6.0625 C-20.98373021 5.12139702 -18.7568676 4.28555465 -16.4375 3.5 C-14.57158203 2.84837891 -14.57158203 2.84837891 -12.66796875 2.18359375 C-8.1888264 0.71443506 -4.72362598 -0.06215297 0 0 Z " fill="#5D23DF" transform="translate(75.25,32.9375)"/>
<path d="M0 0 C2.5625 -0.25 2.5625 -0.25 5 0 C6 1 6 1 6.03417969 2.87011719 C5.97858887 4.0713623 5.97858887 4.0713623 5.921875 5.296875 C5.89609375 6.1734375 5.8703125 7.05 5.84375 7.953125 C5.78175326 9.80269437 5.70388488 11.65180674 5.609375 13.5 C5.43186782 19.17850865 5.43186782 19.17850865 8.390625 23.9140625 C9.25171875 24.60242188 10.1128125 25.29078125 11 26 C13.39442041 29.54673523 14.22182839 32.60209867 13.546875 36.85546875 C12.8019591 39.61969097 11.95849131 42.30315399 11 45 C10.67 45.99 10.34 46.98 10 48 C9.34 48 8.68 48 8 48 C7.67 47.34 7.34 46.68 7 46 C6.01 46 5.02 46 4 46 C4 46.66 4 47.32 4 48 C1.69 48.99 -0.62 49.98 -3 51 C-3 52.32 -3 53.64 -3 55 C-3.66 55 -4.32 55 -5 55 C-4.979375 56.299375 -4.95875 57.59875 -4.9375 58.9375 C-4.91600546 60.29165633 -4.92851801 61.64756083 -5 63 C-6 64 -6 64 -8.5625 64.0625 C-9.366875 64.041875 -10.17125 64.02125 -11 64 C-11.495 62.515 -11.495 62.515 -12 61 C-13.32 61.66 -14.64 62.32 -16 63 C-15.60167969 62.5875 -15.20335938 62.175 -14.79296875 61.75 C-11.84472002 58.53633715 -9.75619298 55.88125034 -8.4375 51.6875 C-7.963125 50.470625 -7.48875 49.25375 -7 48 C-5.35 47.34 -3.7 46.68 -2 46 C-2 38.08 -2 30.16 -2 22 C-3.32 22 -4.64 22 -6 22 C-6.99 18.7 -7.98 15.4 -9 12 C-8.01 12.33 -7.02 12.66 -6 13 C-5.71125 13.94875 -5.4225 14.8975 -5.125 15.875 C-3.76731847 19.64633759 -2.44321909 20.18777943 1 22 C1 22.66 1 23.32 1 24 C1.66 24 2.32 24 3 24 C3 18.39 3 12.78 3 7 C2.01 7 1.02 7 0 7 C-0.33 7.66 -0.66 8.32 -1 9 C-1.625 6.1875 -1.625 6.1875 -2 3 C-1.34 2.01 -0.68 1.02 0 0 Z " fill="#9E2BA0" transform="translate(117,39)"/>
<path d="M0 0 C2 0 2 0 3.625 1.5 C4.07875 1.995 4.5325 2.49 5 3 C5.33 2.34 5.66 1.68 6 1 C5.95875 2.0725 5.9175 3.145 5.875 4.25 C6.01061228 8.47777515 6.01061228 8.47777515 8 12 C8.99 12.33 9.98 12.66 11 13 C12.1875 15.0625 12.1875 15.0625 13 17 C11.02 16.67 9.04 16.34 7 16 C7.01160156 16.71027344 7.02320313 17.42054687 7.03515625 18.15234375 C7.04869141 19.53099609 7.04869141 19.53099609 7.0625 20.9375 C7.07410156 21.85402344 7.08570313 22.77054688 7.09765625 23.71484375 C7 26 7 26 6 27 C3.31448542 27.28268575 1.63248789 27.39823312 -0.6875 25.9375 C-2.56600187 23.16447344 -3.12654906 20.22085034 -4 17 C-4.53625 16.01 -5.0725 15.02 -5.625 14 C-7.24675117 10.46163381 -7.23091141 7.84852347 -7 4 C-4.69 3.34 -2.38 2.68 0 2 C0 1.34 0 0.68 0 0 Z " fill="#5029BC" transform="translate(35,86)"/>
<path d="M0 0 C4.26826873 4.26826873 4.56268919 5.31495945 5 11 C6.32 11 7.64 11 9 11 C10.94345974 14.88691948 10.18480803 19.72514581 10.1875 24 C10.19974609 25.02351563 10.21199219 26.04703125 10.22460938 27.1015625 C10.22750977 28.56722656 10.22750977 28.56722656 10.23046875 30.0625 C10.23457764 30.96097656 10.23868652 31.85945313 10.24291992 32.78515625 C10 35 10 35 8 37 C6.68 37 5.36 37 4 37 C3.34 35.68 2.68 34.36 2 33 C1.01 33.99 0.02 34.98 -1 36 C-1 27.09 -1 18.18 -1 9 C-0.34 10.32 0.32 11.64 1 13 C1.66 13 2.32 13 3 13 C2.01 8.71 1.02 4.42 0 0 Z " fill="#F0EEF3" transform="translate(106,50)"/>
<path d="M0 0 C0.33 0 0.66 0 1 0 C1.33 2.31 1.66 4.62 2 7 C2.33 6.34 2.66 5.68 3 5 C3.66 5 4.32 5 5 5 C4.98428955 5.90709717 4.98428955 5.90709717 4.96826172 6.83251953 C4.92645332 9.5966367 4.90059549 12.36068708 4.875 15.125 C4.85824219 16.07632813 4.84148438 17.02765625 4.82421875 18.0078125 C4.78943087 23.01726666 4.77599953 27.38998578 7 32 C7.99 32.66 8.98 33.32 10 34 C8 35 8 35 6 34.5 C3.02305145 32.26728859 2.89379007 29.51131814 2 26 C1.34 25.67 0.68 25.34 0 25 C-0.99 27.475 -0.99 27.475 -2 30 C-2.99 30 -3.98 30 -5 30 C-5.05786668 26.20839703 -5.09355054 22.41690689 -5.125 18.625 C-5.14175781 17.54476562 -5.15851562 16.46453125 -5.17578125 15.3515625 C-5.18222656 14.3203125 -5.18867187 13.2890625 -5.1953125 12.2265625 C-5.20578613 11.27346191 -5.21625977 10.32036133 -5.22705078 9.33837891 C-5 7 -5 7 -3 5 C-2.01 5 -1.02 5 0 5 C0 3.35 0 1.7 0 0 Z " fill="#F2F1F3" transform="translate(41,55)"/>
<path d="M0 0 C8 0 8 0 10.5 1.9375 C12.53748418 6.09736352 12.90897758 9.4551121 12 14 C10.65785597 16.90995829 9.58403569 17.85580017 7 20 C4.69 20 2.38 20 0 20 C0 13.4 0 6.8 0 0 Z " fill="#2A2A3E" transform="translate(116,64)"/>
<path d="M0 0 C0.99 0.33 1.98 0.66 3 1 C3 1.99 3 2.98 3 4 C4.32 4 5.64 4 7 4 C7.33 4.66 7.66 5.32 8 6 C8.33 5.01 8.66 4.02 9 3 C9.66 2.67 10.32 2.34 11 2 C11 2.99 11 3.98 11 5 C13.475 5.99 13.475 5.99 16 7 C15.67 8.32 15.34 9.64 15 11 C15.99 11.598125 16.98 12.19625 18 12.8125 C18.99 13.534375 19.98 14.25625 21 15 C21 15.99 21 16.98 21 18 C23.38564077 17.42415568 25.66682784 16.77772405 28 16 C28.33 18.97 28.66 21.94 29 25 C25 26 25 26 22.66796875 24.77734375 C20.09648503 22.86999126 17.53235168 20.95913719 15 19 C14.36449219 18.53207031 13.72898437 18.06414062 13.07421875 17.58203125 C7.65866759 13.33673712 3.64658013 7.79664166 0 2 C0 1.34 0 0.68 0 0 Z " fill="#3F22F5" transform="translate(20,104)"/>
<path d="M0 0 C0 6.6 0 13.2 0 20 C-2.31 20 -4.62 20 -7 20 C-10.25147108 16.74852892 -11.26734348 13.92551938 -11.5 9.4375 C-11.33442125 6.27548001 -10.9197611 4.84273176 -9.4375 1.9375 C-7 0 -7 0 0 0 Z " fill="#292640" transform="translate(35,64)"/>
<path d="M0 0 C10.23 0 20.46 0 31 0 C30.01 0.66 29.02 1.32 28 2 C27.29508733 4.32206525 26.62787571 6.65593068 26 9 C23.48987037 11.51012963 22.53194763 11.29721609 19.0625 11.3125 C17.74958984 11.33763672 17.74958984 11.33763672 16.41015625 11.36328125 C14 11 14 11 12.2578125 9.7109375 C10.31550826 7.06892117 9.77232779 4.14872101 9 1 C6.03 1 3.06 1 0 1 C0 0.67 0 0.34 0 0 Z " fill="#F2F3F3" transform="translate(59,89)"/>
<path d="M0 0 C0.99 0.33 1.98 0.66 3 1 C3.72640955 3.31543043 4.38431458 5.65269935 5 8 C5.53625 9.03125 6.0725 10.0625 6.625 11.125 C8.03464769 14.07244517 8.28343361 15.78775246 8 19 C6.68 18.67 5.36 18.34 4 18 C3.67 19.32 3.34 20.64 3 22 C2.67 20.68 2.34 19.36 2 18 C0.68 18 -0.64 18 -2 18 C-2 17.01 -2 16.02 -2 15 C-2.99 14.67 -3.98 14.34 -5 14 C-6.1577506 10.52674819 -6.06866652 7.63932552 -6 4 C-5.34 4 -4.68 4 -4 4 C-3.67 3.34 -3.34 2.68 -3 2 C-2.01 1.34 -1.02 0.68 0 0 Z " fill="#4424E8" transform="translate(25,90)"/>
<path d="M0 0 C0.89203125 0.00902344 1.7840625 0.01804688 2.703125 0.02734375 C3.37859375 0.03894531 4.0540625 0.05054688 4.75 0.0625 C4.75 0.3925 4.75 0.7225 4.75 1.0625 C3.65042969 1.20945313 2.55085938 1.35640625 1.41796875 1.5078125 C-11.13537452 3.34544217 -22.1129363 6.58663955 -30.25 17.0625 C-31.70069964 19.79418335 -31.70069964 19.79418335 -32.25 22.0625 C-32.91 22.0625 -33.57 22.0625 -34.25 22.0625 C-34.25 23.7125 -34.25 25.3625 -34.25 27.0625 C-36.23 28.0525 -36.23 28.0525 -38.25 29.0625 C-38.58 36.6525 -38.91 44.2425 -39.25 52.0625 C-37.6 52.3925 -35.95 52.7225 -34.25 53.0625 C-34.58 54.0525 -34.91 55.0425 -35.25 56.0625 C-36.24 55.7325 -37.23 55.4025 -38.25 55.0625 C-38.25 54.4025 -38.25 53.7425 -38.25 53.0625 C-41.22 52.7325 -44.19 52.4025 -47.25 52.0625 C-47.25 51.7325 -47.25 51.4025 -47.25 51.0625 C-44.94 51.0625 -42.63 51.0625 -40.25 51.0625 C-40.25 44.1325 -40.25 37.2025 -40.25 30.0625 C-41.9 30.0625 -43.55 30.0625 -45.25 30.0625 C-45.25 29.7325 -45.25 29.4025 -45.25 29.0625 C-43.6 29.0625 -41.95 29.0625 -40.25 29.0625 C-40.25 28.4025 -40.25 27.7425 -40.25 27.0625 C-39.651875 26.505625 -39.05375 25.94875 -38.4375 25.375 C-34.69174741 21.4152044 -33.25 17.46935977 -33.25 12.0625 C-32.26 12.0625 -31.27 12.0625 -30.25 12.0625 C-29.92 11.0725 -29.59 10.0825 -29.25 9.0625 C-28.445625 8.93875 -27.64125 8.815 -26.8125 8.6875 C-25.966875 8.48125 -25.12125 8.275 -24.25 8.0625 C-23.92 7.4025 -23.59 6.7425 -23.25 6.0625 C-20.98373021 5.12139702 -18.7568676 4.28555465 -16.4375 3.5 C-14.57158203 2.84837891 -14.57158203 2.84837891 -12.66796875 2.18359375 C-8.1888264 0.71443506 -4.72362598 -0.06215297 0 0 Z " fill="#8A33B0" transform="translate(75.25,32.9375)"/>
<path d="M0 0 C0.99 0.33 1.98 0.66 3 1 C3 1.66 3 2.32 3 3 C4.98 3 6.96 3 9 3 C9 8.61 9 14.22 9 20 C7 20 7 20 5.5625 18.625 C5.046875 18.08875 4.53125 17.5525 4 17 C3.01 16.34 2.02 15.68 1 15 C0.5978125 13.5459375 0.5978125 13.5459375 0.1875 12.0625 C-1.36464019 8.05961213 -3.19351566 7.7007696 -7 6 C-7.33 5.01 -7.66 4.02 -8 3 C-5.03 3.495 -5.03 3.495 -2 4 C-1.34 2.68 -0.68 1.36 0 0 Z " fill="#D554B5" transform="translate(111,43)"/>
<path d="M0 0 C1.63001953 0.02707031 1.63001953 0.02707031 3.29296875 0.0546875 C4.54013672 0.08949219 4.54013672 0.08949219 5.8125 0.125 C5.8125 0.785 5.8125 1.445 5.8125 2.125 C6.4725 2.455 7.1325 2.785 7.8125 3.125 C6.07644487 4.86105513 3.60700504 4.78111982 1.25 5.1875 C0.23808594 5.36410156 -0.77382812 5.54070312 -1.81640625 5.72265625 C-2.59886719 5.85542969 -3.38132812 5.98820312 -4.1875 6.125 C-4.1875 6.455 -4.1875 6.785 -4.1875 7.125 C11.6525 7.62 11.6525 7.62 27.8125 8.125 C27.8125 8.455 27.8125 8.785 27.8125 9.125 C17.1174106 10.63221392 6.38062071 10.01197124 -4.375 9.6875 C-6.30011389 9.63417319 -8.22524415 9.58143388 -10.15039062 9.52929688 C-14.82964338 9.40130707 -19.50860255 9.26535738 -24.1875 9.125 C-24.1875 8.795 -24.1875 8.465 -24.1875 8.125 C-17.7525 7.63 -17.7525 7.63 -11.1875 7.125 C-10.5275 5.475 -9.8675 3.825 -9.1875 2.125 C-5.66070901 -0.22619399 -4.15870515 -0.08943452 0 0 Z " fill="#4E4F5D" transform="translate(75.1875,79.875)"/>
<path d="M0 0 C0.83732743 3.12394391 1.66917982 6.24931974 2.5 9.375 C2.73847656 10.26445313 2.97695313 11.15390625 3.22265625 12.0703125 C3.56103516 13.34648438 3.56103516 13.34648438 3.90625 14.6484375 C4.11572266 15.43395996 4.32519531 16.21948242 4.54101562 17.02880859 C5 19 5 19 5 21 C2.19431993 20.64700771 1.19618655 20.23064554 -0.66796875 18.0390625 C-1.16941406 17.24242188 -1.67085937 16.44578125 -2.1875 15.625 C-2.69667969 14.83351563 -3.20585937 14.04203125 -3.73046875 13.2265625 C-6.10110321 9.06883437 -6.08882077 5.70750059 -6 1 C-4 0 -4 0 0 0 Z " fill="#2C1F61" transform="translate(35,90)"/>
<path d="M0 0 C2.5625 -0.25 2.5625 -0.25 5 0 C6 1 6 1 6.125 3.9375 C6 7 6 7 5 9 C4.87728492 11.14323306 4.82446605 13.29079002 4.8125 15.4375 C4.79123047 17.16806641 4.79123047 17.16806641 4.76953125 18.93359375 C4.76074912 22.17280168 4.76074912 22.17280168 7 25 C4.36 25 1.72 25 -1 25 C-1.33 24.01 -1.66 23.02 -2 22 C-3.32 22 -4.64 22 -6 22 C-6.99 18.7 -7.98 15.4 -9 12 C-8.01 12.33 -7.02 12.66 -6 13 C-5.566875 14.423125 -5.566875 14.423125 -5.125 15.875 C-3.76731847 19.64633759 -2.44321909 20.18777943 1 22 C1 22.66 1 23.32 1 24 C1.66 24 2.32 24 3 24 C3 18.39 3 12.78 3 7 C2.01 7 1.02 7 0 7 C-0.33 7.66 -0.66 8.32 -1 9 C-1.625 6.1875 -1.625 6.1875 -2 3 C-1.34 2.01 -0.68 1.02 0 0 Z " fill="#A93889" transform="translate(117,39)"/>
<path d="M0 0 C7.51136408 -0.05057965 15.02268449 -0.08568257 22.53417969 -0.10986328 C25.09116253 -0.11994038 27.64813379 -0.13360226 30.20507812 -0.15087891 C33.87372692 -0.17505217 37.54222379 -0.18646585 41.2109375 -0.1953125 C42.9344191 -0.21079636 42.9344191 -0.21079636 44.69271851 -0.22659302 C46.28414169 -0.22681961 46.28414169 -0.22681961 47.90771484 -0.22705078 C48.84481293 -0.231492 49.78191101 -0.23593323 50.74740601 -0.24050903 C53 0 53 0 55 2 C54.625 4.125 54.625 4.125 54 6 C53.505 5.01 53.505 5.01 53 4 C52.34 4.66 51.68 5.32 51 6 C48.875 5.625 48.875 5.625 47 5 C47 4.01 47 3.02 47 2 C45.75387939 2.00523682 44.50775879 2.01047363 43.22387695 2.01586914 C38.59269939 2.03399381 33.96152495 2.04545933 29.33032227 2.05493164 C27.32738721 2.05995478 25.32445581 2.06677445 23.3215332 2.07543945 C20.43960669 2.08759345 17.55772875 2.09324857 14.67578125 2.09765625 C13.78288895 2.10281754 12.88999664 2.10797882 11.970047 2.11329651 C7.8472736 2.113667 4.02035208 2.04768418 0 1 C0 0.67 0 0.34 0 0 Z " fill="#20212E" transform="translate(50,57)"/>
<path d="M0 0 C0.33 0 0.66 0 1 0 C1.2475 1.051875 1.495 2.10375 1.75 3.1875 C3.55906774 9.41873332 7.40517612 12.89176451 13 16 C25.7865718 20.68563299 37.62465014 20.28697524 51 19 C51 19.66 51 20.32 51 21 C37.24242848 22.77517052 19.39503106 24.43701863 7 17 C5.8125 14.375 5.8125 14.375 5 12 C4.34 11.855625 3.68 11.71125 3 11.5625 C2.34 11.376875 1.68 11.19125 1 11 C-0.91502155 6.9875739 -1.25190641 4.25648179 0 0 Z " fill="#A887E4" transform="translate(41,87)"/>
<path d="M0 0 C1.70840281 1.63412443 2.93453047 2.86906094 4 5 C5.32 5 6.64 5 8 5 C7 7 7 7 5.4375 8.9375 C3.71410367 10.99119522 3.71410367 10.99119522 4 14 C5.32 14.33 6.64 14.66 8 15 C4.87507749 15.05791844 1.75029234 15.09356746 -1.375 15.125 C-2.26445313 15.14175781 -3.15390625 15.15851563 -4.0703125 15.17578125 C-4.92109375 15.18222656 -5.771875 15.18867187 -6.6484375 15.1953125 C-7.82672119 15.21102295 -7.82672119 15.21102295 -9.02880859 15.22705078 C-11 15 -11 15 -13 13 C-8.66579301 10.96834048 -4.71403788 10.47939368 0 10 C-0.185625 8.72125 -0.37125 7.4425 -0.5625 6.125 C-1.125 2.25 -1.125 2.25 0 0 Z " fill="#292B3C" transform="translate(82,73)"/>
<path d="M0 0 C1.8125 1.125 1.8125 1.125 3 3 C3.375 6.0625 3.375 6.0625 3 9 C-0.45029042 11.30019361 -1.94554358 11.43132515 -6 11 C-8.15502531 7.76746204 -8.46856135 6.74849077 -8 3 C-5.85607122 -0.27231235 -3.76836426 -0.56525464 0 0 Z " fill="#56BFCB" transform="translate(92,65)"/>
<path d="M0 0 C0.66 1.32 1.32 2.64 2 4 C1.34 4 0.68 4 0 4 C0 5.65 0 7.3 0 9 C-0.66 9 -1.32 9 -2 9 C-2.12375 9.969375 -2.2475 10.93875 -2.375 11.9375 C-2.7667467 14.77056673 -3.35859805 17.47932211 -4.0625 20.25 C-5.46514646 26.34209136 -5.9933461 33.01996169 -4 39 C-3.93197033 40.72795352 -3.91504355 42.45835365 -3.9375 44.1875 C-3.94652344 45.08855469 -3.95554687 45.98960938 -3.96484375 46.91796875 C-3.97644531 47.60503906 -3.98804688 48.29210937 -4 49 C-9.42861988 40.85707018 -7.94475273 24.93362361 -6.25 15.5 C-3.30103211 3.30103211 -3.30103211 3.30103211 0 0 Z " fill="#936FD8" transform="translate(19,44)"/>
<path d="M0 0 C2.9375 0.875 2.9375 0.875 4.9375 3.875 C4.6133631 7.19740324 4.32973697 8.48276303 1.9375 10.875 C-1.0625 11.1875 -1.0625 11.1875 -4.0625 10.875 C-6.21752531 7.64246204 -6.53106135 6.62349077 -6.0625 2.875 C-4.29035152 -0.0785808 -3.47140412 -0.14168996 0 0 Z " fill="#5DC5D0" transform="translate(63.0625,65.125)"/>
<path d="M0 0 C1.98 0 3.96 0 6 0 C6.33 0.66 6.66 1.32 7 2 C5.68 2.33 4.36 2.66 3 3 C3 4.32 3 5.64 3 7 C0.69 7 -1.62 7 -4 7 C-4.309375 7.639375 -4.61875 8.27875 -4.9375 8.9375 C-6 11 -6 11 -7 12 C-7.58285311 17.42501744 -7.44991232 21.54386325 -4 26 C-5.65 25.67 -7.3 25.34 -9 25 C-9.88327729 21.9473937 -10.1633007 19.17494823 -10.1875 16 C-10.20167969 15.154375 -10.21585938 14.30875 -10.23046875 13.4375 C-9.980775 10.79667122 -9.46475935 9.20458696 -8 7 C-5.375 6.25 -5.375 6.25 -3 6 C-2.67 4.68 -2.34 3.36 -2 2 C-1.34 2 -0.68 2 0 2 C0 1.34 0 0.68 0 0 Z " fill="#5126A2" transform="translate(32,57)"/>
<path d="M0 0 C0.33 0.66 0.66 1.32 1 2 C2.32303717 2.3721042 3.65737935 2.70630173 5 3 C5.33 3.33 5.66 3.66 6 4 C7.34015221 4.15582303 8.68758903 4.25044142 10.03515625 4.31640625 C11.24848633 4.37924805 11.24848633 4.37924805 12.48632812 4.44335938 C13.33646484 4.48267578 14.18660156 4.52199219 15.0625 4.5625 C15.91650391 4.60568359 16.77050781 4.64886719 17.65039062 4.69335938 C19.76672037 4.79976702 21.88333813 4.90041731 24 5 C24 3.35 24 1.7 24 0 C24.66 1.32 25.32 2.64 26 4 C29.96 4 33.92 4 38 4 C25.79020213 10.10489894 10.19454287 7.74045569 -2.421875 3.875 C-3.27265625 3.58625 -4.1234375 3.2975 -5 3 C-5 2.34 -5 1.68 -5 1 C-3.35 0.67 -1.7 0.34 0 0 Z " fill="#8E71E0" transform="translate(56,130)"/>
<path d="M0 0 C1.5 1.375 1.5 1.375 3 3 C3 3.66 3 4.32 3 5 C3.66 5.33 4.32 5.66 5 6 C-1.94833459 12.16716088 -8.90531853 17.44848007 -18 20 C-18.99 19.67 -19.98 19.34 -21 19 C-20.34 19 -19.68 19 -19 19 C-18.67 18.01 -18.34 17.02 -18 16 C-14.5647952 13.70986347 -13.014669 13.82157027 -9 14 C-9 13.01 -9 12.02 -9 11 C-8.030625 10.71125 -7.06125 10.4225 -6.0625 10.125 C-2.89335797 9.35785318 -2.89335797 9.35785318 -2 7 C-1.01 6.67 -0.02 6.34 1 6 C0.67 4.02 0.34 2.04 0 0 Z " fill="#9E57C9" transform="translate(115,114)"/>
<path d="M0 0 C4.80537497 0.55084238 8.32205053 1.94704043 12.5625 4.25 C14.20412109 5.12398437 14.20412109 5.12398437 15.87890625 6.015625 C19.05994193 8.03811076 21.44616638 10.24166946 24 13 C21.5625 12.625 21.5625 12.625 19 12 C18.67 11.34 18.34 10.68 18 10 C15.74628735 9.53069588 15.74628735 9.53069588 13.125 9.375 C12.24070312 9.30023438 11.35640625 9.22546875 10.4453125 9.1484375 C8.63287027 9.03841705 6.81577843 9 5 9 C5 8.01 5 7.02 5 6 C4.34 6 3.68 6 3 6 C2.67 5.01 2.34 4.02 2 3 C1.34 2.67 0.68 2.34 0 2 C0 1.34 0 0.68 0 0 Z " fill="#E05EA8" transform="translate(94,14)"/>
<path d="M0 0 C0.66 0.33 1.32 0.66 2 1 C1.16855469 1.87011719 1.16855469 1.87011719 0.3203125 2.7578125 C-3.71803655 7.11233123 -6.22987676 10.2811403 -8 16 C-10.625 17.875 -10.625 17.875 -13 19 C-14.27099045 15.18702864 -13.45398157 13.6732166 -12 10 C-11.34 9.01 -10.68 8.02 -10 7 C-9.34 7 -8.68 7 -8 7 C-7.79375 6.401875 -7.5875 5.80375 -7.375 5.1875 C-5.46450791 2.14808077 -3.28595775 1.30069161 0 0 Z " fill="#E7E4E6" transform="translate(59,40)"/>
<path d="M0 0 C0.33 0 0.66 0 1 0 C1.33 5.94 1.66 11.88 2 18 C6.76990123 16.56105667 6.76990123 16.56105667 8.375 14.3125 C9.72109313 9.3319554 8.07410472 4.56303039 6 0 C9.16115776 1.36983503 9.9927092 1.9890638 12 5 C12.68094953 8.76314216 12.72715329 12.40285973 11.125 15.921875 C9.9375 17.5625 9.9375 17.5625 7 20 C4.69 20 2.38 20 0 20 C0 13.4 0 6.8 0 0 Z " fill="#44254F" transform="translate(116,64)"/>
<path d="M0 0 C0.99 0.33 1.98 0.66 3 1 C3.45375 1.474375 3.9075 1.94875 4.375 2.4375 C6.38576214 4.37092514 8.39052205 5.0831564 11 6 C10.01 7.485 10.01 7.485 9 9 C9.33 9.66 9.66 10.32 10 11 C7 10 7 10 4.75 7.625 C-0.54660276 2.56915191 -6.40482953 1.51383676 -13.4375 0.8125 C-14.53481445 0.6897168 -14.53481445 0.6897168 -15.65429688 0.56445312 C-17.43514466 0.36658115 -19.21744927 0.18189293 -21 0 C-21 -0.33 -21 -0.66 -21 -1 C-5.04545455 -3.36363636 -5.04545455 -3.36363636 0 0 Z " fill="#C63FA3" transform="translate(93,35)"/>
<path d="M0 0 C2.31 0 4.62 0 7 0 C7 1.32 7 2.64 7 4 C7.99 4.33 8.98 4.66 10 5 C9.67 5.99 9.34 6.98 9 8 C9 8.99 9 9.98 9 11 C8.6937566 12.33981486 8.36548445 13.67511887 8 15 C7.34 15 6.68 15 6 15 C6 12.36 6 9.72 6 7 C4.35 7 2.7 7 1 7 C0.34 8.98 -0.32 10.96 -1 13 C-1.99 11.68 -2.98 10.36 -4 9 C-3.67 8.34 -3.34 7.68 -3 7 C-2.34 7 -1.68 7 -1 7 C-0.67 4.69 -0.34 2.38 0 0 Z " fill="#DB268F" transform="translate(116,33)"/>
<path d="M0 0 C0.495 0.99 0.495 0.99 1 2 C2.2375 1.9071875 2.2375 1.9071875 3.5 1.8125 C7.88193696 2.04724662 10.95495082 3.32618654 15 5 C14.67 5.66 14.34 6.32 14 7 C13.505 6.505 13.505 6.505 13 6 C3.34725919 4.68371716 -6.39911178 4.66452388 -16.125 4.4375 C-17.8619877 4.39422119 -19.598967 4.35060422 -21.3359375 4.30664062 C-25.55720499 4.20052656 -29.7785598 4.09899471 -34 4 C-34 3.67 -34 3.34 -34 3 C-22.78 2.67 -11.56 2.34 0 2 C0 1.34 0 0.68 0 0 Z " fill="#C8C9CC" transform="translate(90,52)"/>
<path d="M0 0 C0.33 0 0.66 0 1 0 C1 1.98 1 3.96 1 6 C-0.98 6.99 -0.98 6.99 -3 8 C-3.33 15.59 -3.66 23.18 -4 31 C-2.35 31.33 -0.7 31.66 1 32 C0.67 32.99 0.34 33.98 0 35 C-0.99 34.67 -1.98 34.34 -3 34 C-3 33.34 -3 32.68 -3 32 C-5.97 31.67 -8.94 31.34 -12 31 C-12 30.67 -12 30.34 -12 30 C-9.69 30 -7.38 30 -5 30 C-5 23.07 -5 16.14 -5 9 C-6.65 9 -8.3 9 -10 9 C-10 8.67 -10 8.34 -10 8 C-8.35 8 -6.7 8 -5 8 C-5 7.34 -5 6.68 -5 6 C-3.68799596 4.64567325 -2.35368596 3.31266518 -1 2 C-0.67 1.34 -0.34 0.68 0 0 Z " fill="#6B4790" transform="translate(40,54)"/>
<path d="M0 0 C1.23621094 0.16371094 2.47242188 0.32742187 3.74609375 0.49609375 C9.52263078 1.1379312 15.25702584 1.11011588 21.0625 1.0625 C22.11888672 1.05798828 23.17527344 1.05347656 24.26367188 1.04882812 C26.84250908 1.03715918 29.42122294 1.02078885 32 1 C31.67 1.66 31.34 2.32 31 3 C27.62511542 3.16905897 24.25007637 3.33481769 20.875 3.5 C19.92367187 3.54769531 18.97234375 3.59539062 17.9921875 3.64453125 C14.13444916 3.8320602 10.30855741 4.00271259 6.4453125 3.96875 C3.99190786 3.82248455 3.99190786 3.82248455 2 5 C1.34 3.35 0.68 1.7 0 0 Z " fill="#662EC6" transform="translate(59,107)"/>
<path d="M0 0 C0.99 0.33 1.98 0.66 3 1 C4 3.33333333 5 5.66666667 6 8 C6.99 8.33 7.98 8.66 9 9 C10.1875 11.0625 10.1875 11.0625 11 13 C8.03 12.505 8.03 12.505 5 12 C4.67 12.99 4.34 13.98 4 15 C0.43122553 10.34507678 0.31824005 5.65150436 0 0 Z " fill="#5523E1" transform="translate(37,90)"/>
<path d="M0 0 C0.33 0 0.66 0 1 0 C0.67 3.96 0.34 7.92 0 12 C0.66 12.33 1.32 12.66 2 13 C1.67 13.99 1.34 14.98 1 16 C-0.65 16 -2.3 16 -4 16 C-4.33 15.01 -4.66 14.02 -5 13 C-6.98 13.99 -6.98 13.99 -9 15 C-8.60167969 14.5875 -8.20335938 14.175 -7.79296875 13.75 C-3.7997417 9.39728536 -1.77780001 5.62970004 0 0 Z " fill="#AB55C7" transform="translate(110,87)"/>
<path d="M0 0 C0.66 0.33 1.32 0.66 2 1 C1.67 1.33 1.34 1.66 1 2 C1.66 2.66 2.32 3.32 3 4 C1.35 5.98 -0.3 7.96 -2 10 C-1.34 10.33 -0.68 10.66 0 11 C-2.31 11.66 -4.62 12.32 -7 13 C-7.74609375 11.296875 -7.74609375 11.296875 -8 9 C-6.34765625 6.640625 -6.34765625 6.640625 -4.0625 4.25 C-3.31097656 3.45078125 -2.55945313 2.6515625 -1.78515625 1.828125 C-1.19605469 1.22484375 -0.60695313 0.6215625 0 0 Z " fill="#A051C7" transform="translate(32,27)"/>
<path d="M0 0 C0.33 0.66 0.66 1.32 1 2 C-3.23000664 6.68322164 -7.60569379 6.60633357 -13.55078125 6.921875 C-14.76314453 6.96054688 -14.76314453 6.96054688 -16 7 C-15 5 -15 5 -12 4 C-12 3.34 -12 2.68 -12 2 C-8.04 1.34 -4.08 0.68 0 0 Z " fill="#5F26D3" transform="translate(98,128)"/>
<path d="M0 0 C0.33 0 0.66 0 1 0 C1.48736475 6.70126536 0.07708804 11.06561592 -3 17 C-3.33 17 -3.66 17 -4 17 C-4.07654536 12.48382401 -4.10228696 8.40914783 -3 4 C-3.66 4 -4.32 4 -5 4 C-4.67 3.34 -4.34 2.68 -4 2 C-3.01 2.33 -2.02 2.66 -1 3 C-0.67 2.01 -0.34 1.02 0 0 Z " fill="#BC4DB6" transform="translate(136,87)"/>
<path d="M0 0 C2.17971622 3.26957434 2.14352688 3.71496693 1.8125 7.375 C1.69884659 11.37718145 1.69884659 11.37718145 4.3125 14.5625 C5.199375 15.366875 6.08625 16.17125 7 17 C8.38766326 19.55755455 9.55920655 22.11370862 10 25 C9.34 25.99 8.68 26.98 8 28 C7.79375 27.01 7.5875 26.02 7.375 25 C6.48474208 21.7139009 5.1412709 19.88713991 2.875 17.375 C-1.36493265 12.16770407 -0.52566697 6.38588021 0 0 Z " fill="#BE2896" transform="translate(121,48)"/>
<path d="M0 0 C-1.07121094 0.55429687 -2.14242187 1.10859375 -3.24609375 1.6796875 C-4.64338719 2.41115655 -6.04051404 3.14294389 -7.4375 3.875 C-8.14455078 4.23980469 -8.85160156 4.60460938 -9.58007812 4.98046875 C-13.44009668 6.7880318 -13.44009668 6.7880318 -16 10 C-16.66 10 -17.32 10 -18 10 C-18.268125 10.639375 -18.53625 11.27875 -18.8125 11.9375 C-20 14 -20 14 -23 15 C-20.22432157 8.45524243 -13.82103283 3.74017152 -7.6875 0.4375 C-4.00739077 -0.99711885 -3.45590271 -1.15196757 0 0 Z " fill="#F1C8F2" transform="translate(67,37)"/>
<path d="M0 0 C0.66 0 1.32 0 2 0 C2.73046875 1.68359375 2.73046875 1.68359375 3 4 C1.48828125 6.47265625 1.48828125 6.47265625 -0.6875 9.0625 C-1.39261719 9.91972656 -2.09773438 10.77695313 -2.82421875 11.66015625 C-4.76728221 13.74973437 -6.65725226 15.38704727 -9 17 C-9 16.01 -9 15.02 -9 14 C-8.34 14 -7.68 14 -7 14 C-7 13.34 -7 12.68 -7 12 C-6.34 12 -5.68 12 -5 12 C-4.5978125 10.2984375 -4.5978125 10.2984375 -4.1875 8.5625 C-3.795625 7.386875 -3.40375 6.21125 -3 5 C-2.01 4.67 -1.02 4.34 0 4 C0 2.68 0 1.36 0 0 Z " fill="#AB58BE" transform="translate(129,102)"/>
<path d="M0 0 C1.45880109 0.14107747 2.91703551 0.28802415 4.375 0.4375 C5.59316406 0.55931641 5.59316406 0.55931641 6.8359375 0.68359375 C9 1 9 1 11 2 C11.33 1.34 11.66 0.68 12 0 C12.33 1.98 12.66 3.96 13 6 C11.296875 6.6796875 11.296875 6.6796875 9 7 C6.640625 5.8203125 6.640625 5.8203125 4.25 4.125 C3.45078125 3.57070312 2.6515625 3.01640625 1.828125 2.4453125 C1.22484375 1.96835938 0.6215625 1.49140625 0 1 C0 0.67 0 0.34 0 0 Z " fill="#5C45E2" transform="translate(36,123)"/>
<path d="M0 0 C1.00109515 3.31070838 1.10356134 6.30084769 1.0625 9.75 C1.05347656 10.73484375 1.04445313 11.7196875 1.03515625 12.734375 C1.02355469 13.48203125 1.01195312 14.2296875 1 15 C0.01 15 -0.98 15 -2 15 C-3.42258812 11.17679443 -4.24042276 8.08718695 -4 4 C-2.68 3.34 -1.36 2.68 0 2 C0 1.34 0 0.68 0 0 Z " fill="#1E202D" transform="translate(29,66)"/>
<path d="M0 0 C1.32 0.33 2.64 0.66 4 1 C4.33 2.32 4.66 3.64 5 5 C7.38564077 4.42415568 9.66682784 3.77772405 12 3 C11.67 4.65 11.34 6.3 11 8 C7.37 7.34 3.74 6.68 0 6 C0 4.02 0 2.04 0 0 Z " fill="#3F22EE" transform="translate(36,117)"/>
<path d="M0 0 C2.97 0.495 2.97 0.495 6 1 C6 2.98 6 4.96 6 7 C3.625 7.125 3.625 7.125 1 7 C0.34 6.34 -0.32 5.68 -1 5 C-0.625 2.375 -0.625 2.375 0 0 Z " fill="#49E4EE" transform="translate(60,67)"/>
<path d="M0 0 C0 2.31 0 4.62 0 7 C-1.98 7 -3.96 7 -6 7 C-6.33 5.02 -6.66 3.04 -7 1 C-4 0 -4 0 0 0 Z " fill="#4CE3F0" transform="translate(93,68)"/>
<path d="M0 0 C0.99 0 1.98 0 3 0 C3 0.66 3 1.32 3 2 C2.01 1.67 1.02 1.34 0 1 C0 0.67 0 0.34 0 0 Z M-7 2 C-4.36 2 -1.72 2 1 2 C-2 4 -2 4 -4 5 C-4 6.32 -4 7.64 -4 9 C-4.66 9 -5.32 9 -6 9 C-6 10.32 -6 11.64 -6 13 C-6.99 12.67 -7.98 12.34 -9 12 C-8.34 8.7 -7.68 5.4 -7 2 Z " fill="#9E27AE" transform="translate(118,85)"/>
<path d="M0 0 C0.89203125 0.00902344 1.7840625 0.01804688 2.703125 0.02734375 C3.37859375 0.03894531 4.0540625 0.05054688 4.75 0.0625 C4.75 0.3925 4.75 0.7225 4.75 1.0625 C3.63882813 1.22105469 2.52765625 1.37960938 1.3828125 1.54296875 C-7.25044273 2.86556366 -14.70666297 4.3733986 -22.25 9.0625 C-22.58 8.0725 -22.91 7.0825 -23.25 6.0625 C-21.00083381 5.24762829 -18.75073022 4.43553082 -16.5 3.625 C-15.86578125 3.39490234 -15.2315625 3.16480469 -14.578125 2.92773438 C-9.46872291 1.091543 -5.42972076 -0.07144369 0 0 Z " fill="#9F37A3" transform="translate(75.25,32.9375)"/>
<path d="M0 0 C-1.41773462 3.54433654 -2.67612238 4.33806119 -6 6 C-6.68268138 7.32520503 -7.3507041 8.65812182 -8 10 C-8.99 10.33 -9.98 10.66 -11 11 C-11 10.34 -11 9.68 -11 9 C-11.66 8.67 -12.32 8.34 -13 8 C-11.5433323 6.85204994 -10.08461063 5.70670581 -8.625 4.5625 C-7.40683594 3.60537109 -7.40683594 3.60537109 -6.1640625 2.62890625 C-2.67146283 0 -2.67146283 0 0 0 Z " fill="#AE50BF" transform="translate(47,18)"/>
<path d="M0 0 C2.40450178 2.40450178 2.29609139 3.08233942 2.3125 6.375 C2.24868341 9.42346918 2.09095213 10.83049831 0.625 13.5625 C-1 15 -1 15 -3 15 C-3 14.34 -3 13.68 -3 13 C-4.32 13 -5.64 13 -7 13 C-7 12.34 -7 11.68 -7 11 C-5.02 10.34 -3.04 9.68 -1 9 C-0.20046862 5.71303767 0.09658936 4.28976808 -1 1 C-0.67 0.67 -0.34 0.34 0 0 Z " fill="#1E3649" transform="translate(67,65)"/>
<path d="M0 0 C3.03333922 3.03333922 2.6646334 5.7743808 3 10 C2 11 2 11 -0.375 11.25 C-3 11 -3 11 -4.875 9.75 C-6 8 -6 8 -5.6875 5.8125 C-5.3471875 4.9153125 -5.3471875 4.9153125 -5 4 C-4.3503125 4.9590625 -4.3503125 4.9590625 -3.6875 5.9375 C-2.08760823 8.26746003 -2.08760823 8.26746003 1 9 C0.67 8.34 0.34 7.68 0 7 C-0.04022391 4.6670134 -0.04320247 2.33293334 0 0 Z " fill="#4328CB" transform="translate(39,102)"/>
<path d="M0 0 C0.66 0 1.32 0 2 0 C2.84098656 4.01804691 3.05404945 7.01803543 2 11 C1.01 11 0.02 11 -1 11 C-1.99 11.66 -2.98 12.32 -4 13 C-4 12.01 -4 11.02 -4 10 C-3.34 10 -2.68 10 -2 10 C-2 8.35 -2 6.7 -2 5 C-1.34 5 -0.68 5 0 5 C-0.2784375 4.0409375 -0.2784375 4.0409375 -0.5625 3.0625 C-0.706875 2.381875 -0.85125 1.70125 -1 1 C-0.67 0.67 -0.34 0.34 0 0 Z " fill="#7524CC" transform="translate(21,43)"/>
<path d="M0 0 C5.75 0.875 5.75 0.875 8 2 C8.625 4.0625 8.625 4.0625 9 6 C7.68 6.99 6.36 7.98 5 9 C5 8.01 5 7.02 5 6 C4.34 6 3.68 6 3 6 C2.67 5.01 2.34 4.02 2 3 C1.34 2.67 0.68 2.34 0 2 C0 1.34 0 0.68 0 0 Z " fill="#DC469F" transform="translate(94,14)"/>
<path d="M0 0 C0.99 0.33 1.98 0.66 3 1 C3 1.99 3 2.98 3 4 C4.32 4 5.64 4 7 4 C8.4216319 7.3171411 9.39009109 10.44219804 10 14 C6.07511907 10.29939798 2.97784457 6.5093075 0 2 C0 1.34 0 0.68 0 0 Z " fill="#7461DB" transform="translate(20,104)"/>
<path d="M0 0 C3 1 3 1 4 3 C4.13415472 5.6723621 4.04318541 8.32250488 4 11 C4.66 11.33 5.32 11.66 6 12 C5.34 12.66 4.68 13.32 4 14 C1.28608722 9.22642128 -0.56561146 5.65611463 0 0 Z " fill="#6953D9" transform="translate(15,90)"/>
<path d="M0 0 C0.9075 0.103125 1.815 0.20625 2.75 0.3125 C1.76 0.8075 1.76 0.8075 0.75 1.3125 C0.75 1.9725 0.75 2.6325 0.75 3.3125 C-0.4565625 3.7765625 -0.4565625 3.7765625 -1.6875 4.25 C-4.14080405 5.07585345 -4.14080405 5.07585345 -5.25 6.3125 C-5.16015699 8.17022162 -5.00388139 10.02497985 -4.8125 11.875 C-4.71066406 12.88691406 -4.60882812 13.89882812 -4.50390625 14.94140625 C-4.42011719 15.72386719 -4.33632813 16.50632812 -4.25 17.3125 C-6.21026975 15.67980848 -7.1565055 14.76228435 -7.68359375 12.2265625 C-7.69037111 8.25503139 -7.51921137 5.8198599 -5.625 2.25 C-3.25 0.3125 -3.25 0.3125 0 0 Z " fill="#2B1E4E" transform="translate(31.25,63.6875)"/>
<path d="M0 0 C3.34156689 2.70507796 4.58156362 6.01486922 6 10 C6.1875 13.4375 6.1875 13.4375 6 16 C3.29727467 13.12835434 2.05208163 11.69008159 1.75 7.6875 C1.8325 6.800625 1.915 5.91375 2 5 C1.34 5 0.68 5 0 5 C0 3.35 0 1.7 0 0 Z " fill="#DB69AD" transform="translate(131,43)"/>
<path d="M0 0 C4.26826873 4.26826873 4.56268919 5.31495945 5 11 C6.32 11.33 7.64 11.66 9 12 C7.02 12.33 5.04 12.66 3 13 C2.01 8.71 1.02 4.42 0 0 Z " fill="#F8D4F5" transform="translate(106,50)"/>
<path d="M0 0 C1.98 0 3.96 0 6 0 C6.33 0.66 6.66 1.32 7 2 C5.68 2.33 4.36 2.66 3 3 C3 3.66 3 4.32 3 5 C1.02 5.33 -0.96 5.66 -3 6 C-2.67 4.68 -2.34 3.36 -2 2 C-1.34 2 -0.68 2 0 2 C0 1.34 0 0.68 0 0 Z " fill="#7426CE" transform="translate(32,57)"/>
<path d="M0 0 C-0.99 1.485 -0.99 1.485 -2 3 C-2.99 3 -3.98 3 -5 3 C-5.66 4.32 -6.32 5.64 -7 7 C-7.99 6.01 -8.98 5.02 -10 4 C-7.6604297 0.49064455 -4.21379901 -2.1068995 0 0 Z M-12 5 C-10 6 -10 6 -10 6 Z " fill="#A42AA7" transform="translate(55,17)"/>
<path d="M0 0 C-2.75264252 3.05849168 -5.00751252 4.87391379 -9 6 C-9.99 5.67 -10.98 5.34 -12 5 C-11.34 5 -10.68 5 -10 5 C-9.67 4.01 -9.34 3.02 -9 2 C-5.5647952 -0.29013653 -4.014669 -0.17842973 0 0 Z " fill="#8553CD" transform="translate(106,128)"/>
<path d="M0 0 C0.99 0.33 1.98 0.66 3 1 C3 2.32 3 3.64 3 5 C3.99 5.33 4.98 5.66 6 6 C-0.625 6.25 -0.625 6.25 -4 4 C-3.34 4 -2.68 4 -2 4 C-2 3.01 -2 2.02 -2 1 C-1.34 0.67 -0.68 0.34 0 0 Z " fill="#4626DB" transform="translate(63,129)"/>
<path d="M0 0 C0.33 0.66 0.66 1.32 1 2 C1.8971875 2.2165625 1.8971875 2.2165625 2.8125 2.4375 C5.41224542 3.10600597 6.94337945 4.31063312 9 6 C4.13103697 5.40380045 -0.32790951 4.43023178 -5 3 C-5 2.34 -5 1.68 -5 1 C-3.35 0.67 -1.7 0.34 0 0 Z " fill="#826EE2" transform="translate(56,130)"/>
<path d="M0 0 C0.99 0.495 0.99 0.495 2 1 C2.85698913 4.04657391 3.47498345 7.11720638 4.12109375 10.21484375 C4.77583558 13.303064 4.77583558 13.303064 8 15 C7.01 15.495 7.01 15.495 6 16 C2.26415094 14.52830189 2.26415094 14.52830189 1 12 C0.77141886 9.9625237 0.58975722 7.91959697 0.4375 5.875 C0.35371094 4.77929688 0.26992188 3.68359375 0.18359375 2.5546875 C0.12300781 1.71164063 0.06242187 0.86859375 0 0 Z " fill="#E3E3E7" transform="translate(43,74)"/>
<path d="M0 0 C1.65 0 3.3 0 5 0 C5.33 1.65 5.66 3.3 6 5 C4.02 5 2.04 5 0 5 C0 3.35 0 1.7 0 0 Z " fill="#491343" transform="translate(116,40)"/>
<path d="M0 0 C3.63 0 7.26 0 11 0 C11 0.66 11 1.32 11 2 C7.95699684 3.52150158 5.345915 3.23899393 2 3 C1.34 2.01 0.68 1.02 0 0 Z " fill="#E0E2EB" transform="translate(70,80)"/>
<path d="M0 0 C0.99 0.33 1.98 0.66 3 1 C3.433125 2.423125 3.433125 2.423125 3.875 3.875 C5.21973749 7.61038193 6.49258017 8.33859061 10 10 C9.67 10.66 9.34 11.32 9 12 C8.34 12 7.68 12 7 12 C7 11.34 7 10.68 7 10 C5.68 10 4.36 10 3 10 C2.01 6.7 1.02 3.4 0 0 Z " fill="#B44398" transform="translate(108,51)"/>
<path d="M0 0 C0.66 0.99 1.32 1.98 2 3 C2.66 3.33 3.32 3.66 4 4 C2.84826645 6.46800047 1.95216435 8.04783565 0 10 C0 8.68 0 7.36 0 6 C-0.99 5.67 -1.98 5.34 -3 5 C-3 4.34 -3 3.68 -3 3 C-2.34 3 -1.68 3 -1 3 C-0.67 2.01 -0.34 1.02 0 0 Z " fill="#4121F4" transform="translate(27,102)"/>
<path d="M0 0 C9.59453303 0.59453303 9.59453303 0.59453303 13 4 C9.29218328 5.23593891 8.32489747 4.5678132 4.8125 3.0625 C3.91144531 2.68222656 3.01039062 2.30195312 2.08203125 1.91015625 C1.39496094 1.60980469 0.70789062 1.30945313 0 1 C0 0.67 0 0.34 0 0 Z " fill="#7C57D8" transform="translate(48,103)"/>
<path d="M0 0 C0.99 0.33 1.98 0.66 3 1 C3 1.66 3 2.32 3 3 C4.98 3 6.96 3 9 3 C9.33 3.99 9.66 4.98 10 6 C8.35 6.33 6.7 6.66 5 7 C5 6.01 5 5.02 5 4 C4.360625 3.896875 3.72125 3.79375 3.0625 3.6875 C2.381875 3.460625 1.70125 3.23375 1 3 C0.67 2.01 0.34 1.02 0 0 Z " fill="#5526D9" transform="translate(25,82)"/>
<path d="M0 0 C0.99 0.66 1.98 1.32 3 2 C2.67 3.32 2.34 4.64 2 6 C1.67 5.34 1.34 4.68 1 4 C0.34 4.66 -0.32 5.32 -1 6 C-3.125 5.625 -3.125 5.625 -5 5 C-5 4.01 -5 3.02 -5 2 C-4.360625 1.855625 -3.72125 1.71125 -3.0625 1.5625 C-1.02454854 1.18992819 -1.02454854 1.18992819 0 0 Z " fill="#272735" transform="translate(102,57)"/>
<path d="M0 0 C0.66 0.33 1.32 0.66 2 1 C2.125 7.75 2.125 7.75 1 10 C0.01 9.67 -0.98 9.34 -2 9 C-1.505 7.88625 -1.505 7.88625 -1 6.75 C0.22782871 3.86116688 0.22782871 3.86116688 0 0 Z " fill="#903BC4" transform="translate(42,45)"/>
<path d="M0 0 C0.33 0 0.66 0 1 0 C1.02578125 0.58007812 1.0515625 1.16015625 1.078125 1.7578125 C1.48567151 7.3708394 2.49364211 10.58877555 6 15 C4.35 14.67 2.7 14.34 1 14 C0.06380187 10.84493858 -0.1057123 8.03413498 -0.0625 4.75 C-0.05347656 3.85796875 -0.04445313 2.9659375 -0.03515625 2.046875 C-0.02355469 1.37140625 -0.01195313 0.6959375 0 0 Z " fill="#502ABB" transform="translate(22,68)"/>
<path d="M0 0 C0.66 0.33 1.32 0.66 2 1 C2.17835515 5.54805635 1.99785435 8.8794254 0 13 C-0.33 13 -0.66 13 -1 13 C-1.02696365 11.20841511 -1.04637917 9.41671527 -1.0625 7.625 C-1.07410156 6.62726563 -1.08570313 5.62953125 -1.09765625 4.6015625 C-1 2 -1 2 0 0 Z " fill="#5023CD" transform="translate(14,67)"/>
<path d="M0 0 C0.99 0.33 1.98 0.66 3 1 C3 2.65 3 4.3 3 6 C3.66 6.33 4.32 6.66 5 7 C2.69 7 0.38 7 -2 7 C-1.42415568 4.61435923 -0.77772405 2.33317216 0 0 Z " fill="#DD258F" transform="translate(128,42)"/>
<path d="M0 0 C1.98 0 3.96 0 6 0 C6 1.32 6 2.64 6 4 C4.02 4 2.04 4 0 4 C0 2.68 0 1.36 0 0 Z " fill="#E92192" transform="translate(116,33)"/>
<path d="M0 0 C0 0.99 0 1.98 0 3 C-6.93 2.505 -6.93 2.505 -14 2 C-14 1.67 -14 1.34 -14 1 C-9.27616037 0.34843591 -4.78025483 -0.11950637 0 0 Z " fill="#B74CA5" transform="translate(86,33)"/>
<path d="M0 0 C3.37462715 0.54723683 5.08235 1.0549 8 3 C7.01 3.99 6.02 4.98 5 6 C3.31237149 4.3545622 1.6459651 2.68711423 0 1 C0 0.67 0 0.34 0 0 Z " fill="#5624E0" transform="translate(50,105)"/>
<path d="M0 0 C0.99 0 1.98 0 3 0 C3 2.97 3 5.94 3 9 C2.34 9 1.68 9 1 9 C0.67 6.03 0.34 3.06 0 0 Z " fill="#1E1B35" transform="translate(30,91)"/>
<path d="M0 0 C2.00293347 3.00440021 2.49271626 4.70993945 3.125 8.1875 C3.37636719 9.53908203 3.37636719 9.53908203 3.6328125 10.91796875 C3.75398438 11.60503906 3.87515625 12.29210937 4 13 C2.68 12.67 1.36 12.34 0 12 C0.66 11.67 1.32 11.34 2 11 C1.505 9.948125 1.505 9.948125 1 8.875 C-0.09044562 5.73996884 -0.15322643 3.29436818 0 0 Z " fill="#2E1E75" transform="translate(36,98)"/>
<path d="M0 0 C0 0.99 0 1.98 0 3 C-2.31 3.33 -4.62 3.66 -7 4 C-7 3.01 -7 2.02 -7 1 C-4 0 -4 0 0 0 Z " fill="#9359BF" transform="translate(99,104)"/>
<path d="M0 0 C2.18975773 3.28463659 2.99806563 6.20696275 4 10 C1 9 1 9 -0.25 6.6875 C-1.0275526 3.90126985 -0.98726527 2.66561622 0 0 Z " fill="#25223E" transform="translate(34,99)"/>
<path d="M0 0 C4.92127034 -0.16682272 8.50343896 -0.24828052 13 2 C12.67 2.99 12.34 3.98 12 5 C11.01 4.67 10.02 4.34 9 4 C9 3.34 9 2.68 9 2 C6.03 1.67 3.06 1.34 0 1 C0 0.67 0 0.34 0 0 Z " fill="#734DCB" transform="translate(28,84)"/>
<path d="M0 0 C0.33 0 0.66 0 1 0 C1.33 2.64 1.66 5.28 2 8 C-0.31 8 -2.62 8 -5 8 C-4.34 7.01 -3.68 6.02 -3 5 C-2.01 5 -1.02 5 0 5 C0 3.35 0 1.7 0 0 Z " fill="#E4C9F6" transform="translate(41,55)"/>
<path d="M0 0 C0 1.98 0 3.96 0 6 C-1.98 4.68 -3.96 3.36 -6 2 C-2.25 0 -2.25 0 0 0 Z " fill="#6D5FE1" transform="translate(36,117)"/>
<path d="M0 0 C2 2 2 2 2.1953125 4.1640625 C2.16050781 5.38222656 2.16050781 5.38222656 2.125 6.625 C2.10695313 7.44226563 2.08890625 8.25953125 2.0703125 9.1015625 C2.04710938 9.72804688 2.02390625 10.35453125 2 11 C1.01 11.495 1.01 11.495 0 12 C-1.11544282 8.65367153 -0.67217232 7.36086161 0 4 C-0.33 3.01 -0.66 2.02 -1 1 C-0.67 0.67 -0.34 0.34 0 0 Z " fill="#1B3D53" transform="translate(67,65)"/>
<path d="M0 0 C0 0.66 0 1.32 0 2 C-2 4 -2 4 -4 5 C-4.66 3.35 -5.32 1.7 -6 0 C-2.25 -1.125 -2.25 -1.125 0 0 Z " fill="#8C25BB" transform="translate(122,114)"/>
<path d="M0 0 C0.66 0.33 1.32 0.66 2 1 C1.67 1.66 1.34 2.32 1 3 C0.34 3 -0.32 3 -1 3 C-1.268125 3.639375 -1.53625 4.27875 -1.8125 4.9375 C-3 7 -3 7 -6 8 C-4.55746343 4.63408134 -2.66735273 2.48952921 0 0 Z " fill="#F2D4FA" transform="translate(50,44)"/>
<path d="M0 0 C1.32 0.33 2.64 0.66 4 1 C3.319375 1.61875 3.319375 1.61875 2.625 2.25 C0.94049626 4.06408095 0.00734029 5.75285627 -1 8 C-1.66 6.35 -2.32 4.7 -3 3 C-2.01 2.67 -1.02 2.34 0 2 C0 1.34 0 0.68 0 0 Z " fill="#CC2A90" transform="translate(115,38)"/>
<path d="M0 0 C-0.625 1.9375 -0.625 1.9375 -2 4 C-5.125 4.75 -5.125 4.75 -8 5 C-3.16129032 0 -3.16129032 0 0 0 Z " fill="#C272C8" transform="translate(47,18)"/>
<path d="M0 0 C-0.99 0 -1.98 0 -3 0 C-3 1.32 -3 2.64 -3 4 C-4.32 4.33 -5.64 4.66 -7 5 C-6.625 2.5625 -6.625 2.5625 -6 0 C-3.50907189 -1.24546405 -2.58919267 -0.7767578 0 0 Z " fill="#915CCA" transform="translate(112,125)"/>
<path d="M0 0 C2.97 0.33 5.94 0.66 9 1 C7.515 2.485 7.515 2.485 6 4 C1.125 2.25 1.125 2.25 0 0 Z " fill="#705DE4" transform="translate(36,123)"/>
<path d="M0 0 C0.33 0 0.66 0 1 0 C2.17076699 3.98060777 3.25749403 7.91621717 4 12 C3.34 11.67 2.68 11.34 2 11 C2 10.34 2 9.68 2 9 C1.34 9 0.68 9 0 9 C0 6.03 0 3.06 0 0 Z " fill="#4527D6" transform="translate(27,91)"/>
<path d="M0 0 C0.33 0 0.66 0 1 0 C1 3.63 1 7.26 1 11 C-0.32 11.33 -1.64 11.66 -3 12 C-2.690625 11.505 -2.38125 11.01 -2.0625 10.5 C-0.58355618 7.02013219 -0.37597149 3.75971491 0 0 Z " fill="#9A2C8D" transform="translate(128,70)"/>
<path d="M0 0 C1.98 0.66 3.96 1.32 6 2 C5.34 2.66 4.68 3.32 4 4 C2.68 4 1.36 4 0 4 C-0.33 3.01 -0.66 2.02 -1 1 C-0.67 0.67 -0.34 0.34 0 0 Z " fill="#4029E0" transform="translate(30,114)"/>
<path d="M0 0 C1 3 1 3 1 5 C-0.98 5.33 -2.96 5.66 -5 6 C-3.86695008 2.60085025 -2.87481525 1.94745549 0 0 Z " fill="#8726B4" transform="translate(105,99)"/>
</svg>
