<svg width="24" height="25" viewBox="0 0 24 25" fill="none" xmlns="http://www.w3.org/2000/svg">
<path d="M12 16.0116L8.461 12.4736L9.169 11.7536L11.5 14.0846V5.43457H12.5V14.0846L14.83 11.7546L15.539 12.4736L12 16.0116ZM6.616 19.4346C6.15533 19.4346 5.771 19.2806 5.463 18.9726C5.155 18.6646 5.00067 18.2799 5 17.8186V15.3956H6V17.8186C6 17.9726 6.064 18.1139 6.192 18.2426C6.32 18.3712 6.461 18.4352 6.615 18.4346H17.385C17.5383 18.4346 17.6793 18.3706 17.808 18.2426C17.9367 18.1146 18.0007 17.9732 18 17.8186V15.3956H19V17.8186C19 18.2792 18.846 18.6636 18.538 18.9716C18.23 19.2796 17.8453 19.4339 17.384 19.4346H6.616Z" fill="black"/>
</svg>
