<svg width="15" height="17" viewBox="0 0 15 17" fill="none" xmlns="http://www.w3.org/2000/svg">
<path d="M12 5.75C12 8.75 7.5 12.25 7.5 12.25C7.5 12.25 3 8.75 3 5.75C3 3.299 5.049 1.25 7.5 1.25C9.951 1.25 12 3.299 12 5.75Z" stroke="white" stroke-linecap="round" stroke-linejoin="round"/>
<path d="M11.5773 12.25H12.5L14 15.75H1L2.5 12.25H3.4227" stroke="white" stroke-linecap="round" stroke-linejoin="round"/>
<path d="M7.5 7.94186C8.32843 7.94186 9 7.1928 9 6.26878C9 5.34476 8.32843 4.5957 7.5 4.5957C6.67157 4.5957 6 5.34476 6 6.26878C6 7.1928 6.67157 7.94186 7.5 7.94186Z" stroke="white" stroke-linecap="round" stroke-linejoin="round"/>
</svg>
